<?xml version="1.0" encoding="utf-8"?>
<!-- Generator: Adobe Illustrator 24.1.3, SVG Export Plug-In . SVG Version: 6.00 Build 0)  -->
<svg version="1.1" id="Layer_1" xmlns="http://www.w3.org/2000/svg" xmlns:xlink="http://www.w3.org/1999/xlink" x="0px" y="0px"
	 width="1500px" height="470px" viewBox="0 0 1500 470" style="enable-background:new 0 0 1500 470;" xml:space="preserve">
<style type="text/css">
	.st0{fill:#FDFBFA;}
	.st1{fill:#F7DFD7;}
	.st2{fill:#C1C1C1;}
	.st3{fill:#606269;}
	.st4{fill:#A69C9C;}
	.st5{fill:#A4E5F5;}
	.st6{fill:#FEFFFF;}
	.st7{fill:#5F9F4F;}
	.st8{fill:#C0E891;}
	.st9{fill:#81B9C2;}
	.st10{fill:#FABE52;}
	.st11{fill:#EE7572;}
	.st12{fill:#C98E2F;}
	.st13{fill:#EABF7C;}
	.st14{fill:#97724A;}
	.st15{fill:#EFF0F0;}
	.st16{fill:#5A8250;}
	.st17{fill:#CF6663;}
	.st18{fill:#D1D1D1;}
	.st19{fill:#45633D;}
	.st20{fill:#CB9649;}
	.st21{fill:#99D5E4;}
	.st22{fill:#B9D597;}
	.st23{fill:#A8A8A8;}
	.st24{fill:#D6DBDB;}
	.st25{opacity:0.63;}
	.st26{fill:#D15D5D;}
	.st27{fill:#E98883;}
	.st28{opacity:0.8;fill:#FABE52;enable-background:new    ;}
	.st29{opacity:0.6;fill:#FABE52;enable-background:new    ;}
	.st30{opacity:0.61;fill:#A69C9C;enable-background:new    ;}
	.st31{opacity:0.8;fill:#A69C9C;enable-background:new    ;}
	.st32{fill:#86B2A6;}
	.st33{opacity:0.6;fill:#86B2A6;enable-background:new    ;}
	.st34{opacity:0.8;fill:#86B2A6;enable-background:new    ;}
	.st35{fill:#A9D3C9;}
	.st36{fill:#C15044;}
	.st37{fill:#A0D7E4;}
	.st38{fill:#ABCC73;}
	.st39{fill:#FABC4C;}
	.st40{fill:#FFB4B3;}
	.st41{fill:#FFAA00;}
	.st42{fill:#E5A745;}
	.st43{fill:#B68717;}
	.st44{fill:#BCD59D;}
	.st45{fill:#91AF58;}
	.st46{fill:#72352C;}
	.st47{fill:#A7C17A;}
	.st48{fill:#848484;}
	.st49{fill:#FFFFFF;}
	.st50{fill:#EEF7FF;}
	.st51{fill:#55565E;}
	.st52{fill:#E3CDB4;}
	.st53{fill:#C9B199;}
</style>
<g>
	<path class="st0" d="M1411,139c-28.2-2-638.3-9.9-676.3-9.9c-27.2,0-545.7,6-569,7.9c-45.7,2.9-83.7,34.1-96.3,77.8
		c-5.9,23.4-12.7,49.7-18.5,76c-4.6,22.5-8.9,45.6-12.2,66.6h865.6h5.3h510.5c5-19.8,10.4-41.2,15.2-62.6
		c7.8-38,14.5-77.7,17.5-106.1C1455.6,163.4,1436.3,140.9,1411,139z"/>
	<path class="st1" d="M1416.8,370.7c1-4.2,2.1-8.5,3.2-12.9H883.4h-23.5H471.3h-74.8H38.7c-2.2,14.3-4.1,27.6-5.3,39.1
		c-2.7,25.2,16.5,47.7,41.8,49.6c28.2,2.9,539.5,9.9,577.5,9.9c27.2,0,644.5-6,667.8-7.9C1366.2,445.6,1404.2,414.4,1416.8,370.7z"
		/>
</g>
<g>
	<g id="XMLID_87_">
		<g id="XMLID_88_">
			<g>
				<g>
					<g>
						<rect x="425.5" y="191.5" class="st2" width="220.8" height="57.4"/>
					</g>
				</g>
			</g>
		</g>
	</g>
	<g id="XMLID_86_">
		<g>
			<g>
				<g>
					<rect x="412.5" y="255.2" class="st3" width="246.9" height="155.8"/>
				</g>
			</g>
		</g>
	</g>
	<g id="XMLID_84_">
		<g id="XMLID_85_">
			<g>
				<g>
					<g>
						<rect x="412.5" y="255.2" class="st2" width="246.9" height="118.6"/>
					</g>
				</g>
			</g>
		</g>
	</g>
	<g id="XMLID_82_">
		<g id="XMLID_83_">
			<g>
				<g>
					<g>
						<rect x="593.2" y="285.1" class="st4" width="48.8" height="125.9"/>
					</g>
				</g>
			</g>
		</g>
	</g>
	<g id="XMLID_80_">
		<g id="XMLID_81_">
			<g>
				<g>
					<g>
						<g>
							<rect x="421.5" y="289.9" class="st5" width="158.9" height="89.7"/>
						</g>
					</g>
				</g>
			</g>
		</g>
	</g>
	<g id="XMLID_78_">
		<g id="XMLID_79_">
			<g>
				<g>
					<g>
						<rect x="600" y="364.2" class="st3" width="35.9" height="34.8"/>
					</g>
				</g>
			</g>
		</g>
	</g>
	<g id="XMLID_76_">
		<g id="XMLID_77_">
			<g>
				<g>
					<g>
						<rect x="600" y="291.6" class="st5" width="35.9" height="6.9"/>
					</g>
				</g>
			</g>
		</g>
	</g>
	<g id="XMLID_74_">
		<g id="XMLID_75_">
			<g>
				<g>
					<g>
						<rect x="600" y="302.8" class="st3" width="35.9" height="37.6"/>
					</g>
				</g>
			</g>
		</g>
	</g>
	<g id="XMLID_73_">
		<g>
			<g>
				<g>
					<path class="st6" d="M627.5,352.5v-0.8c0-0.6,0.5-1,1-1h10.2c0.6,0,1,0.5,1,1v0.8c0,0.6-0.5,1-1,1h-10.2
						C628,353.5,627.5,353,627.5,352.5z"/>
				</g>
			</g>
		</g>
	</g>
	<g id="XMLID_71_">
		<g id="XMLID_72_">
			<g>
				<g>
					<g>
						<rect x="397.7" y="242.7" class="st4" width="275.2" height="12.5"/>
					</g>
				</g>
			</g>
		</g>
	</g>
	<g id="XMLID_69_">
		<g id="XMLID_70_">
			<g>
				<g>
					<g>
						<rect x="412.2" y="182.8" class="st4" width="247.4" height="12.5"/>
					</g>
				</g>
			</g>
		</g>
	</g>
	<g id="XMLID_67_">
		<g id="XMLID_68_">
			<g>
				<g>
					<g>
						<path class="st6" d="M446.2,338.8c12.6-9,25.2-18.2,37.9-27.2c1.7-1.2,0.1-4.1-1.7-2.8c-12.6,9-25.2,18.2-37.9,27.2
							C442.9,337.1,444.6,340,446.2,338.8L446.2,338.8z"/>
					</g>
				</g>
			</g>
		</g>
	</g>
	<g id="XMLID_65_">
		<g id="XMLID_66_">
			<g>
				<g>
					<g>
						<path class="st6" d="M527.7,338.8c12.6-9,25.2-18.2,37.9-27.2c1.7-1.2,0.1-4.1-1.7-2.8c-12.6,9-25.2,18.2-37.9,27.2
							C524.4,337.2,526,340,527.7,338.8L527.7,338.8z"/>
					</g>
				</g>
			</g>
		</g>
	</g>
	<g id="XMLID_63_">
		<g id="XMLID_64_">
			<g>
				<g>
					<g>
						<path class="st6" d="M542.5,346c8.5-6.1,17-12.3,25.5-18.4c1.7-1.2,0.1-4.1-1.7-2.8c-8.5,6.1-17,12.3-25.5,18.4
							C539.3,344.3,540.8,347.2,542.5,346L542.5,346z"/>
					</g>
				</g>
			</g>
		</g>
	</g>
	<g>
		<g>
			<g>
				<g>
					<g>
						<g>
							<g>
								<path class="st7" d="M673.3,368c0,20.2-3.9,36.7-8.6,36.7c-4.7,0-8.6-16.4-8.6-36.7c0-23.5,8.6-36.7,8.6-36.7
									S673.3,344.3,673.3,368z"/>
							</g>
						</g>
					</g>
				</g>
			</g>
			<g>
				<g>
					<g>
						<g>
							<g>
								<path class="st8" d="M664.7,405.6c-6.2,0-9.5-19.3-9.5-37.5c0-23.5,8.4-36.6,8.7-37.1l0.8-1.2l0.8,1.2
									c0.4,0.6,8.7,13.3,8.7,37.1C674.3,386.2,670.9,405.6,664.7,405.6z M664.8,333.2c-2.1,3.9-7.7,16.1-7.7,34.8
									c0,22.2,4.4,35.8,7.7,35.8s7.7-13.6,7.7-35.8C672.4,349.1,666.9,337.1,664.8,333.2z"/>
							</g>
						</g>
					</g>
				</g>
			</g>
		</g>
		<g>
			<g>
				<g>
					<g>
						<g>
							<g>
								<path class="st8" d="M664.7,399.6c-0.6,0-0.9-0.4-0.9-0.8v-49.9c0-0.5,0.5-0.8,0.9-0.8c0.6,0,0.9,0.4,0.9,0.8v49.9
									C665.7,399.2,665.3,399.6,664.7,399.6z"/>
							</g>
						</g>
					</g>
				</g>
			</g>
		</g>
		<g>
			<g>
				<g>
					<g>
						<g>
							<g>
								<path class="st8" d="M681.5,370.4c0,12.8-3,23.3-6.6,23.3s-6.6-10.4-6.6-23.3c0-15,6.6-23.3,6.6-23.3
									S681.5,355.2,681.5,370.4z"/>
							</g>
						</g>
					</g>
				</g>
			</g>
			<g>
				<g>
					<g>
						<g>
							<g>
								<path class="st7" d="M675,394.2c-4.7,0-7.3-12.3-7.3-23.8c0-15,6.4-23.2,6.6-23.5l0.6-0.7l0.6,0.7c0.3,0.4,6.6,8.5,6.6,23.5
									C682.3,381.9,679.7,394.2,675,394.2z M675,348.2c-1.6,2.5-5.8,10.2-5.8,22.1c0,14,3.4,22.7,5.8,22.7s5.8-8.7,5.8-22.7
									C680.8,358.4,676.6,350.7,675,348.2z"/>
							</g>
						</g>
					</g>
				</g>
			</g>
		</g>
		<g>
			<g>
				<g>
					<g>
						<g>
							<g>
								<path class="st7" d="M675,390.3c-0.4,0-0.7-0.3-0.7-0.6V358c0-0.3,0.3-0.6,0.7-0.6s0.7,0.3,0.7,0.6v31.7
									C675.7,390.1,675.3,390.3,675,390.3z"/>
							</g>
						</g>
					</g>
				</g>
			</g>
		</g>
		<g>
			<g>
				<g>
					<g>
						<polygon class="st6" points="680.2,412.2 656.2,412.2 652.6,380.9 682.8,380.9 						"/>
					</g>
				</g>
			</g>
		</g>
		<g>
			<g>
				<g>
					<g>
						<rect x="648.5" y="376.8" class="st6" width="38.6" height="4.5"/>
					</g>
				</g>
			</g>
		</g>
	</g>
	<g>
		<path class="st3" d="M516.6,213.3c0.8,0.5,1.4,1,1.8,1.8s0.6,1.7,0.6,2.7h-1.9c0-1-0.3-1.8-0.8-2.4c-0.6-0.6-1.4-0.8-2.5-0.8
			c-1.2,0-2.1,0.4-2.8,1.1s-0.9,1.8-0.9,3.3v1.8c0,1.5,0.3,2.6,0.9,3.3s1.6,1.1,2.8,1.1s2-0.3,2.6-0.9c0.6-0.6,0.8-1.5,0.8-2.8v-0.3
			h-3.9v-1.8h5.8v4.7c0,1.1,0,1.9,0.1,2.6H518c-0.2-0.6-0.3-1.1-0.4-1.7c-0.8,1.2-2.1,1.8-3.9,1.8c-1.8,0-3.2-0.6-4.2-1.7
			c-1-1.1-1.5-2.6-1.5-4.6v-1.8c0-1.9,0.5-3.5,1.5-4.5c1-1.1,2.4-1.7,4.2-1.7C514.8,212.6,515.7,212.9,516.6,213.3z"/>
		<path class="st3" d="M526.7,212.9v1.8H525v10.2h1.7v1.8h-5.2v-1.8h1.7v-10.2h-1.7v-1.8H526.7z M525.1,208.9v1.9h-1.8v-1.9H525.1z"
			/>
		<path class="st3" d="M539.5,212.9l-4.9,8.5v5.4h-1.9v-5.4l-4.9-8.5h2.3l3.7,6.5h0.1l3.7-6.5H539.5z"/>
		<path class="st3" d="M545.6,212.9v1.8H544v10.2h1.7v1.8h-5.2v-1.8h1.7v-10.2h-1.7v-1.8H545.6z M544,208.9v1.9h-1.8v-1.9H544z"/>
		<path class="st3" d="M563.8,212.9v13.8h-1.9v-11.5h-0.1l-4.8,11.5h-1.7l-4.8-11.5h-0.1v11.5h-1.8v-13.8h3.1l4.4,10.9h0.1l4.5-10.9
			H563.8z"/>
	</g>
	<g>
		<path class="st9" d="M439.7,348.4v3.3h-3v18.9h3v3.3h-9.6v-3.3h3v-18.9h-3v-3.3H439.7z M436.5,341.1v3.7h-3.4v-3.7H436.5z"/>
		<path class="st9" d="M464,348.4V374h-3.1l-12.5-18.7h-0.1v18.6H445v-25.6h3.2l12.4,18.5h0.1v-18.5L464,348.4L464,348.4z"/>
		<path class="st9" d="M485.4,349.8c1.6,0.9,2.9,2.3,3.7,4c0.8,1.8,1.3,3.8,1.3,6.1v2.6c0,2.3-0.5,4.3-1.3,6.1c-0.8,1.8-2.1,3-3.7,4
			s-3.4,1.4-5.6,1.4h-8.9v-25.6h8.9C481.9,348.4,483.8,348.9,485.4,349.8z M474.6,351.7v18.9h5.3c2.2,0,3.9-0.6,5.2-2
			c1.2-1.4,1.8-3.4,1.8-6.1v-2.6c0-2.7-0.6-4.6-1.8-6.1c-1.2-1.4-2.9-2.1-5.2-2.1L474.6,351.7L474.6,351.7z"/>
		<path class="st9" d="M504.3,348.4v3.3h-3v18.9h3v3.3h-9.6v-3.3h3v-18.9h-3v-3.3H504.3z M501.1,341.1v3.7h-3.4v-3.7H501.1z"/>
		<path class="st9" d="M526.1,350c1.5,1.1,2.2,2.5,2.2,4.4c0,1.7-0.5,3-1.3,4.2c-0.9,1.2-1.9,1.8-3.2,2.1v0.2c1.2,0.5,2.2,1.3,3,2.5
			c0.7,1.2,1.2,2.6,1.2,4.2c0,1.4,0.1,2.4,0.2,3.1c0.2,0.7,0.4,1.2,0.6,1.5c0.3,0.3,0.6,0.5,1.1,0.6v1c-0.6,0.2-1.1,0.4-1.8,0.4
			c-1.2,0-2.1-0.4-2.8-1c-0.6-0.7-1-2-1-4s-0.5-3.6-1.3-4.7s-1.8-1.7-3.1-1.7h-6.5v11.3h-3.7v-25.6h10.9
			C522.7,348.4,524.7,349,526.1,350z M513.3,351.7v7.7h7.3c1.1,0,2-0.4,2.9-1.1c0.8-0.7,1.2-1.6,1.2-2.7v-0.2c0-1.1-0.4-2-1.1-2.7
			c-0.7-0.7-1.8-1-3-1L513.3,351.7L513.3,351.7z"/>
		<path class="st9" d="M542.8,348.4v3.3h-3v18.9h3v3.3h-9.6v-3.3h3v-18.9h-3v-3.3H542.8z M539.6,341.1v3.7h-3.4v-3.7H539.6z"/>
		<path class="st9" d="M576.3,348.4V374h-3.7v-21.2h-0.2l-8.9,21.2h-3.1l-8.8-21.2h-0.2V374h-3.3v-25.6h5.7l8.2,20.1h0.2l8.3-20.1
			H576.3z"/>
	</g>
</g>
<g>
	<g>
		<g id="XMLID_61_">
			<g id="XMLID_62_">
				<g>
					<g>
						<g>
							<path class="st10" d="M206.5,97.9c-25.6,41.6-39.3,65.9-39.3,65.9h142.6C309.8,163.8,289.7,114.7,206.5,97.9z"/>
						</g>
					</g>
				</g>
			</g>
		</g>
		<g id="XMLID_58_">
			<g id="XMLID_59_">
				<g id="XMLID_60_">
				</g>
			</g>
		</g>
		<path class="st11" d="M197,120.4l-17,27.9c7.7,4.6,17.7,2.2,22.5-5.5C207.1,135.2,204.7,125.1,197,120.4z"/>
		<g id="XMLID_56_">
			<g id="XMLID_57_">
				<g>
					<g>
						<g>
							<circle class="st11" cx="253.4" cy="152.9" r="16.3"/>
						</g>
					</g>
				</g>
			</g>
		</g>
		<path class="st12" d="M317.4,176.6c-2.9,0-5.6-1.6-6.8-4.4c-23.9-52.7-103.8-65.5-104.6-65.6c-4.1-0.6-6.9-4.5-6.3-8.5
			c0.6-4.1,4.4-6.9,8.5-6.3c3.6,0.5,88.7,14.1,116,74.3c1.7,3.8,0,8.2-3.7,9.9C319.5,176.4,318.5,176.6,317.4,176.6z"/>
		<path class="st13" d="M317.4,172.5c-2.9,0-5.6-1.6-6.8-4.4c-23.9-52.7-103.8-65.5-104.6-65.6c-4.1-0.6-6.9-4.5-6.3-8.5
			c0.6-4.1,4.4-6.9,8.5-6.3c3.6,0.5,88.7,14.1,116,74.3c1.7,3.8,0,8.2-3.7,9.9C319.5,172.3,318.5,172.5,317.4,172.5z"/>
	</g>
	<g id="XMLID_54_">
		<g id="XMLID_55_">
			<g>
				<g>
					<g>
						<rect x="121.2" y="280.1" class="st10" width="212.4" height="130.2"/>
					</g>
				</g>
			</g>
		</g>
	</g>
	<g id="XMLID_52_">
		<g id="XMLID_53_">
			<g>
				<g>
					<g>
						<rect x="122.4" y="172.5" class="st10" width="211.4" height="43.1"/>
					</g>
				</g>
			</g>
		</g>
	</g>
	<g id="XMLID_50_">
		<g id="XMLID_51_">
			<g>
				<g>
					<g>
						<rect x="276.7" y="305.9" class="st14" width="42" height="104.6"/>
					</g>
				</g>
			</g>
		</g>
	</g>
	<polygon class="st11" points="157.6,215.6 122.4,215.6 94.7,280.3 139.1,280.3 	"/>
	<polygon class="st15" points="192.8,215.6 157.6,215.6 139.1,280.3 183.6,280.3 	"/>
	<polygon class="st16" points="228,215.6 192.8,215.6 183.6,280.3 228,280.3 	"/>
	<polygon class="st11" points="263.2,215.6 228,215.6 228,280.3 272.5,280.3 	"/>
	<polygon class="st15" points="298.5,215.6 263.2,215.6 272.5,280.3 316.9,280.3 	"/>
	<polygon class="st16" points="333.7,215.6 298.5,215.6 316.9,280.3 361.4,280.3 	"/>
	<path class="st17" d="M116.9,300.9c12.3,0,22.2-9.2,22.2-20.6H94.6C94.7,291.7,104.6,300.9,116.9,300.9z"/>
	<path class="st18" d="M161.3,300.9c12.3,0,22.2-9.2,22.2-20.6H139C139.1,291.7,149.1,300.9,161.3,300.9z"/>
	<path class="st19" d="M205.8,300.9c12.3,0,22.2-9.2,22.2-20.6h-44.5C183.6,291.7,193.5,300.9,205.8,300.9z"/>
	<path class="st17" d="M250.3,300.9c12.3,0,22.2-9.2,22.2-20.6H228C228,291.7,238,300.9,250.3,300.9z"/>
	<path class="st18" d="M294.7,300.9c12.3,0,22.2-9.2,22.2-20.6h-44.5C272.5,291.7,282.4,300.9,294.7,300.9z"/>
	<path class="st19" d="M339.2,300.9c12.3,0,22.2-9.2,22.2-20.6h-44.5C316.9,291.7,326.9,300.9,339.2,300.9z"/>
	<g id="XMLID_48_">
		<g id="XMLID_49_">
			<g>
				<g>
					<g>
						<rect x="127.3" y="304.3" class="st20" width="138" height="74.1"/>
					</g>
				</g>
			</g>
		</g>
	</g>
	<g id="XMLID_46_">
		<g id="XMLID_47_">
			<g>
				<g>
					<g>
						<rect x="137.3" y="311.5" class="st21" width="52.6" height="61.6"/>
					</g>
				</g>
			</g>
		</g>
	</g>
	<g id="XMLID_43_">
		<g id="XMLID_44_">
			<g id="XMLID_45_">
				<g>
					<g>
						<g>
							<rect x="199.4" y="311.4" class="st21" width="50.4" height="61.6"/>
						</g>
					</g>
				</g>
			</g>
		</g>
	</g>
	<g>
		<g>
			<g>
				<path class="st22" d="M167.8,359.3c0-5.3-4.3-9.6-9.6-9.6c-4.7,0-8.5,3.3-9.5,7.7c-0.4,0-0.8-0.1-1.2-0.1
					c-3.5,0-6.7,1.1-9.4,3.1c-0.8-0.7-1.9-1-3-1c-2.6,0-4.9,2.2-4.9,4.9c0,1.7,0.8,3.1,2.2,4c-0.6,1.6-0.8,3.3-0.8,5
					c0,8.7,7.1,15.8,15.8,15.8s15.8-7.1,15.8-15.8c0-1.8-0.3-3.6-0.8-5.1C165.6,366.3,167.8,363,167.8,359.3z"/>
			</g>
		</g>
	</g>
	<g>
		<g>
			<g>
				<circle class="st22" cx="193.7" cy="376.1" r="16.2"/>
			</g>
		</g>
	</g>
	<g>
		<g>
			<g>
				<ellipse class="st22" cx="238.7" cy="377.2" rx="16.2" ry="17.2"/>
			</g>
		</g>
	</g>
	<g id="XMLID_41_">
		<g id="XMLID_42_">
			<g>
				<g>
					<g>
						<rect x="121.2" y="378.4" class="st23" width="144" height="32.1"/>
					</g>
				</g>
			</g>
		</g>
	</g>
	<g>
		<g id="XMLID_39_">
			<g id="XMLID_40_">
				<g>
					<g>
						<g>
							<rect x="219.3" y="384.7" class="st24" width="37.6" height="19.3"/>
						</g>
					</g>
				</g>
			</g>
		</g>
		<g id="XMLID_37_">
			<g id="XMLID_38_">
				<g>
					<g>
						<g>
							<rect x="174.4" y="384.7" class="st24" width="37.6" height="19.3"/>
						</g>
					</g>
				</g>
			</g>
		</g>
		<g id="XMLID_35_">
			<g id="XMLID_36_">
				<g>
					<g>
						<g>
							<rect x="129.7" y="384.7" class="st24" width="37.6" height="19.3"/>
						</g>
					</g>
				</g>
			</g>
		</g>
	</g>
	<g id="XMLID_33_">
		<g id="XMLID_34_">
			<g>
				<g>
					<g>
						<rect x="282.6" y="374" class="st14" width="30.9" height="30"/>
					</g>
				</g>
			</g>
		</g>
	</g>
	<g id="XMLID_31_">
		<g id="XMLID_32_">
			<g>
				<g>
					<g>
						<rect x="282.6" y="311.5" class="st21" width="30.9" height="5.9"/>
					</g>
				</g>
			</g>
		</g>
	</g>
	<g id="XMLID_29_">
		<g id="XMLID_30_">
			<g>
				<g>
					<g>
						<rect x="282.6" y="321.2" class="st21" width="30.9" height="32.3"/>
					</g>
				</g>
			</g>
		</g>
	</g>
	<g id="XMLID_28_">
		<g>
			<g>
				<g>
					<path class="st15" d="M311.9,367.5h-0.7c-0.5,0-0.8-0.4-0.8-0.8V358c0-0.5,0.4-0.8,0.8-0.8h0.7c0.5,0,0.8,0.4,0.8,0.8v8.7
						C312.8,367.1,312.4,367.5,311.9,367.5z"/>
				</g>
			</g>
		</g>
	</g>
	<g id="XMLID_26_">
		<g id="XMLID_27_">
			<g>
				<g>
					<g>
						<rect x="108" y="163.8" class="st20" width="236.9" height="10.8"/>
					</g>
				</g>
			</g>
		</g>
	</g>
	<g id="XMLID_24_">
		<g id="XMLID_25_">
			<g>
				<g>
					<g>
						<rect x="158.1" y="182.2" class="st15" width="133.1" height="27.1"/>
					</g>
				</g>
			</g>
		</g>
	</g>
	<g id="XMLID_21_" class="st25">
		<g id="XMLID_22_">
			<g id="XMLID_23_">
				<g>
					<g>
						<g>
							<path class="st15" d="M147.7,344.3c10.2-7.3,20.3-14.6,30.5-21.9c1.3-0.9,0.1-3.3-1.3-2.2c-10.2,7.3-20.3,14.6-30.5,21.9
								C145,343,146.3,345.2,147.7,344.3L147.7,344.3z"/>
						</g>
					</g>
				</g>
			</g>
		</g>
	</g>
	<g id="XMLID_18_" class="st25">
		<g id="XMLID_19_">
			<g id="XMLID_20_">
				<g>
					<g>
						<g>
							<path class="st15" d="M207,342.5c10.2-7.3,20.3-14.6,30.5-21.9c1.3-0.9,0.1-3.3-1.3-2.2c-10.2,7.3-20.3,14.6-30.5,21.9
								C204.3,341.2,205.6,343.4,207,342.5L207,342.5z"/>
						</g>
					</g>
				</g>
			</g>
		</g>
	</g>
	<g id="XMLID_15_" class="st25">
		<g id="XMLID_16_">
			<g id="XMLID_17_">
				<g>
					<g>
						<g>
							<path class="st15" d="M159.5,347c6.8-5,13.7-9.8,20.5-14.8c1.3-0.9,0.1-3.3-1.3-2.2c-6.8,5-13.7,9.8-20.5,14.8
								C156.8,345.7,158.1,347.9,159.5,347L159.5,347z"/>
						</g>
					</g>
				</g>
			</g>
		</g>
	</g>
	<g>
		<g id="XMLID_14_">
			<g>
				<g>
					<g>
						<path class="st11" d="M206.5,201.4v-11.1h3.1c0.5,0,0.9,0.1,1.3,0.3c0.4,0.2,0.7,0.4,1,0.7s0.6,0.7,0.7,1
							c0.2,0.4,0.3,0.8,0.3,1.3s-0.1,0.9-0.3,1.3c-0.2,0.4-0.4,0.7-0.7,1s-0.7,0.6-1,0.7c-0.4,0.2-0.8,0.3-1.3,0.3h-0.9v4.4
							L206.5,201.4L206.5,201.4z M208.8,194.8h0.9c0.3,0,0.6-0.1,0.7-0.3s0.3-0.5,0.3-0.7s-0.1-0.6-0.3-0.7
							c-0.2-0.2-0.5-0.3-0.7-0.3h-0.9V194.8z"/>
					</g>
				</g>
			</g>
		</g>
		<g>
			<rect x="214" y="190.4" class="st11" width="2.2" height="2.2"/>
			<rect x="214" y="193.6" class="st11" width="2.2" height="7.8"/>
		</g>
		<g id="XMLID_13_">
			<g>
				<g>
					<g>
						<path class="st11" d="M222,192.6h-4.6v-2.2h8.3l-5,8.9h4.6v2.2H217L222,192.6z"/>
					</g>
				</g>
			</g>
		</g>
		<g id="XMLID_12_">
			<g>
				<g>
					<g>
						<path class="st11" d="M231.3,192.6h-4.6v-2.2h8.3l-5,8.9h4.6v2.2h-8.3L231.3,192.6z"/>
					</g>
				</g>
			</g>
		</g>
		<g id="XMLID_11_">
			<g>
				<g>
					<g>
						<path class="st11" d="M243.5,201.4l-1.1-3.1H239l-1.1,3.1h-2.3l4-11.1h2.3l4,11.1H243.5z M240.6,193.6l-0.9,2.5h1.8
							L240.6,193.6z"/>
					</g>
				</g>
			</g>
		</g>
	</g>
	<g>
		<g id="XMLID_8_">
			<g id="XMLID_9_">
				<g id="XMLID_10_">
					<g>
						<g>
							<g>
								<g>
									<g>
										<g>
											<g>
												<g>
													<g>
														<g>
															<polygon class="st26" points="217.2,426.7 153.4,426.7 148.5,361.1 212.1,361.1 															"/>
														</g>
													</g>
												</g>
											</g>
										</g>
									</g>
								</g>
							</g>
						</g>
					</g>
				</g>
			</g>
		</g>
		<g id="XMLID_5_">
			<g id="XMLID_6_">
				<g id="XMLID_7_">
					<g>
						<g>
							<g>
								<g>
									<g>
										<g>
											<g>
												<g>
													<g>
														<g>
															<polygon class="st27" points="212.1,361.1 206.1,431.9 142.3,431.9 148.4,361.1 															"/>
														</g>
													</g>
												</g>
											</g>
										</g>
									</g>
								</g>
							</g>
						</g>
					</g>
				</g>
			</g>
		</g>
		<g>
			<path class="st15" d="M153.2,365.3h2.3l-1.5,16.6h-2.2L153.2,365.3z M153.7,373.3h5.3c0.5,0,0.9-0.1,1.3-0.4
				c0.4-0.3,0.7-0.6,0.9-1c0.3-0.5,0.4-0.9,0.5-1.5s0-1-0.2-1.5s-0.5-0.7-0.8-1c-0.4-0.3-0.7-0.4-1.3-0.4h-5.3l0.2-2.2h5.2
				c1,0,1.9,0.2,2.5,0.7c0.7,0.5,1.2,1,1.6,1.8c0.4,0.7,0.5,1.7,0.4,2.7s-0.4,1.9-0.8,2.6c-0.5,0.7-1.1,1.3-1.9,1.8
				c-0.7,0.4-1.7,0.7-2.7,0.7h-5.2L153.7,373.3z"/>
			<path class="st15" d="M167.5,365.3h2.3l-1.5,16.6H166L167.5,365.3z M167.9,372.6h5.6c0.5,0,0.8-0.1,1.2-0.3
				c0.4-0.2,0.7-0.6,0.8-0.9c0.2-0.4,0.4-0.8,0.4-1.3s0-0.9-0.2-1.3s-0.4-0.7-0.7-0.9c-0.3-0.2-0.7-0.3-1.1-0.3h-5.6l0.2-2.2h5.6
				c0.9,0,1.8,0.2,2.4,0.6c0.7,0.4,1.2,0.9,1.5,1.7c0.4,0.7,0.5,1.6,0.4,2.5s-0.4,1.8-0.8,2.5c-0.5,0.7-1.1,1.3-1.9,1.7
				c-0.7,0.4-1.6,0.6-2.5,0.6h-5.6L167.9,372.6z M172.3,374.4l2.3-0.6l3.6,8.1h-2.8L172.3,374.4z"/>
			<path class="st15" d="M183.3,381.3c-0.8-0.5-1.5-1.2-1.9-2.2c-0.4-0.9-0.6-2-0.5-3.2l0.4-4.7c0.1-1.2,0.5-2.2,1-3.2
				c0.6-0.9,1.3-1.7,2.2-2.2s2-0.7,3.1-0.7s2.2,0.3,3,0.7c0.8,0.5,1.5,1.2,1.9,2.2c0.4,0.9,0.6,2,0.5,3.2l-0.4,4.7
				c-0.1,1.2-0.5,2.2-1,3.2c-0.6,0.9-1.3,1.7-2.2,2.2s-2,0.7-3.1,0.7C185.2,382.1,184.1,381.8,183.3,381.3z M188.4,379.3
				c0.6-0.3,1-0.7,1.3-1.3c0.4-0.6,0.6-1.2,0.6-2l0.5-4.9c0.1-0.7,0-1.4-0.3-2s-0.6-1-1.1-1.3s-1.1-0.5-1.8-0.5s-1.3,0.2-1.9,0.5
				c-0.6,0.3-1,0.7-1.3,1.3c-0.4,0.6-0.6,1.2-0.6,2l-0.5,4.9c-0.1,0.7,0,1.4,0.3,2s0.6,1,1.1,1.3s1.1,0.5,1.8,0.5
				S187.8,379.7,188.4,379.3z"/>
			<path class="st15" d="M163.3,386.8h2.2l-1.5,16.6h-2.2l1.1-12.5l0.1,0.7l-5,9.4h-1.6l-3.3-9.2l0.2-0.9l-1.1,12.5h-2.3l1.5-16.6
				h2.2l3.9,11L163.3,386.8z"/>
			<path class="st15" d="M170.6,402.8c-0.8-0.5-1.5-1.2-1.9-2.2c-0.4-0.9-0.6-2-0.5-3.2l0.4-4.7c0.1-1.2,0.5-2.2,1-3.2
				c0.6-0.9,1.3-1.7,2.2-2.2s2-0.7,3.1-0.7s2.2,0.3,3,0.7c0.8,0.5,1.5,1.2,1.9,2.2c0.4,0.9,0.6,2,0.5,3.2l-0.4,4.7
				c-0.1,1.2-0.5,2.2-1,3.2c-0.6,0.9-1.3,1.7-2.2,2.2s-2,0.7-3.1,0.7C172.3,403.5,171.4,403.3,170.6,402.8z M175.6,400.7
				c0.6-0.3,1-0.7,1.3-1.3c0.4-0.6,0.6-1.2,0.6-2l0.5-4.9c0.1-0.7,0-1.4-0.3-2s-0.6-1-1.1-1.3s-1.1-0.5-1.8-0.5s-1.3,0.2-1.9,0.5
				c-0.6,0.3-1,0.7-1.3,1.3c-0.4,0.6-0.6,1.2-0.6,2l-0.5,4.9c-0.1,0.7,0,1.4,0.3,2s0.6,1,1.1,1.3c0.6,0.3,1.1,0.5,1.8,0.5
				C174.4,401.2,175.1,401.1,175.6,400.7z"/>
			<path class="st15" d="M186.5,403.5c0,0-0.4-0.1-1-0.2c-0.7-0.2-1.3-0.4-2-0.7c-0.6-0.3-1.1-0.7-1.7-1.1l1.6-1.8
				c0.6,0.6,1.2,0.9,2,1.2c0.7,0.3,1.6,0.4,2.4,0.4c1.2,0,2.2-0.2,2.8-0.7c0.7-0.5,1.1-1,1.1-1.9l0,0c0.1-0.6-0.1-1-0.4-1.4
				c-0.3-0.4-0.7-0.6-1.1-0.7c-0.5-0.2-1-0.3-1.8-0.5c0,0,0,0-0.1,0s-0.1,0-0.1,0H188c-1.1-0.2-2-0.4-2.6-0.7
				c-0.7-0.3-1.2-0.7-1.7-1.3c-0.5-0.7-0.6-1.5-0.5-2.7l0,0c0.1-1,0.4-1.9,0.9-2.6s1.2-1.3,2.2-1.7c0.9-0.4,2-0.6,3.3-0.6
				c0.6,0,1.2,0.1,1.8,0.2s1.1,0.3,1.7,0.6c0.6,0.3,1,0.6,1.6,0.9l-1.5,1.9c-0.6-0.5-1.2-0.8-1.8-1s-1.2-0.4-1.9-0.4
				c-1.1,0-2.1,0.2-2.7,0.7s-1,1.1-1.1,2l0,0c-0.1,0.6,0.1,1,0.4,1.3c0.3,0.3,0.7,0.6,1.1,0.7c0.5,0.2,1.1,0.3,2,0.5h0.1h0.1h0.1
				h0.1c1,0.2,1.8,0.5,2.4,0.7c0.7,0.3,1.2,0.7,1.6,1.4s0.6,1.5,0.5,2.6l0,0c-0.1,1-0.4,1.9-0.9,2.6s-1.3,1.3-2.2,1.7
				s-2.1,0.6-3.4,0.6C186.9,403.5,186.5,403.5,186.5,403.5z"/>
			<path class="st15" d="M153.5,418l-0.6,6.7h-2.3l0.6-6.7l-4.2-9.8h2.6l3,7.5l4.3-7.5h2.6L153.5,418z"/>
			<path class="st15" d="M162,424.2c-0.8-0.5-1.5-1.2-1.9-2.2c-0.4-0.9-0.6-2-0.5-3.2l0.4-4.7c0.1-1.2,0.5-2.2,1-3.2
				c0.6-0.9,1.3-1.7,2.2-2.2s2-0.7,3.1-0.7s2.2,0.3,3,0.7c0.8,0.5,1.5,1.2,1.9,2.2c0.4,0.9,0.6,2,0.5,3.2l-0.4,4.7
				c-0.1,1.2-0.5,2.2-1,3.2c-0.6,0.9-1.3,1.7-2.2,2.2s-2,0.7-3.1,0.7S162.8,424.7,162,424.2z M167,422.2c0.6-0.3,1-0.7,1.3-1.3
				s0.6-1.2,0.6-2l0.5-4.9c0.1-0.7,0-1.4-0.3-2s-0.6-1-1.1-1.3s-1.1-0.5-1.8-0.5s-1.3,0.2-1.9,0.5c-0.6,0.3-1,0.7-1.3,1.3
				c-0.4,0.6-0.6,1.2-0.6,2l-0.5,4.9c-0.1,0.7,0,1.4,0.3,2s0.6,1,1.1,1.3s1.1,0.5,1.8,0.5C165.8,422.6,166.5,422.5,167,422.2z"/>
			<path class="st15" d="M175.8,408.2h2.2l7,12.8l-0.3,0.3l1.1-13.1h2.3l-1.5,16.6h-2.2l-7-12.6l0.3-0.3l-1.1,12.9h-2.3L175.8,408.2
				z"/>
		</g>
	</g>
</g>
<g>
	<path id="Path_158_63_" class="st28" d="M710.7,63h-16.3c-3.5,0-6.2,2.9-6.1,6.3v6.2c0,3.5,2.7,6.2,6.1,6.3h10.3l7.5,6.1v-6.3
		c2.7-0.7,4.7-3.2,4.6-6.1v-6.2C716.8,65.9,714.1,63.1,710.7,63z"/>
	<path id="Path_158_62_" class="st29" d="M522.8,12.2h-25c-5.4,0-9.6,4.3-9.3,9.7v9.6c0,5.4,4.2,9.6,9.3,9.7h15.9l11.4,9.3v-9.7
		c4.2-1.2,7.2-5,7.1-9.3v-9.6C532.3,16.7,528.1,12.5,522.8,12.2z"/>
	<path id="Path_158_60_" class="st29" d="M361.8,91.4h-16.4c-3.5,0-6.3,2.8-6.1,6.4v6.3c0,3.5,2.8,6.3,6.1,6.4h10.4l7.5,6.1v-6.4
		c2.8-0.8,4.7-3.3,4.7-6.1v-6.3C368,94.3,365.2,91.6,361.8,91.4z"/>
	<path id="Path_158_3_" class="st4" d="M667.8,142.5h-16.5c-3.6,0-6.3,2.9-6.2,6.4v6.3c0,3.6,2.8,6.3,6.2,6.4h10.5l7.6,6.2v-6.4
		c2.8-0.8,4.8-3.3,4.7-6.2v-6.3C674,145.5,671.3,142.7,667.8,142.5z"/>
	<path id="Path_158_123_" class="st30" d="M763,174.8h-12.4c-2.7,0-4.8,2.2-4.7,4.8v4.8c0,2.7,2.1,4.8,4.7,4.8h7.9l5.7,4.7v-4.8
		c2.1-0.6,3.6-2.5,3.5-4.7v-4.7C767.7,177.1,765.6,175,763,174.8z"/>
	<path id="Path_165_57_" class="st28" d="M600.9,36.3c-1.4-1.4-3.5-1.4-4.9-0.4c-0.4,0-0.4,0.4-0.4,0.4c-1.4,1.4-2.5,2.5-3.9,3.9
		c-0.4,0.4-0.7,0.4-1.1,0.4l0,0c-0.7-0.4-1.4-0.7-2.5-1.4c-3.5-2.1-6.7-4.9-9.1-8.1c-1.4-1.4-2.5-3.2-3.2-5.3
		c-0.4-0.4,0-0.7,0.4-0.7c1.4-1.1,2.5-2.5,3.5-3.5c1.4-1.4,1.8-3.5,0.4-4.9c-0.4-0.4-0.4-0.4-0.4-0.4c-0.7-0.7-2.1-2.1-2.8-2.8
		s-2.1-2.1-2.8-2.8c-1.4-1.4-3.5-1.4-4.9-0.4c-0.4,0-0.4,0.4-0.4,0.4c-1.4,1.4-2.5,2.5-3.9,3.9c-1.1,1.1-1.8,2.5-2.1,3.9
		c0,2.5,0.4,4.9,1.4,7c1.8,4.9,4.6,9.1,7.7,13c4.2,5.3,9.8,9.5,16.1,12.6c2.8,1.4,6,2.5,8.8,2.5c2.1,0.4,4.2-0.7,5.6-2.1
		c1.1-1.1,2.1-2.1,3.2-3.2c1.4-1.4,1.8-3.5,0.4-4.9c-0.4-0.4-0.4-0.4-0.4-0.4C604.8,40.2,602.7,38.1,600.9,36.3z"/>
	<path id="Path_165_56_" class="st28" d="M392.6,72.8c-0.8-0.8-1.9-0.8-2.7-0.2c-0.2,0-0.2,0.2-0.2,0.2c-0.8,0.8-1.3,1.3-2.1,2.1
		c-0.2,0.2-0.4,0.2-0.6,0.2l0,0c-0.4-0.2-0.8-0.4-1.3-0.8c-1.9-1.1-3.6-2.7-4.9-4.4c-0.8-0.8-1.3-1.7-1.7-2.8
		c-0.2-0.2,0-0.4,0.2-0.4c0.8-0.6,1.3-1.3,1.9-1.9c0.8-0.8,0.9-1.9,0.2-2.7c-0.2-0.2-0.2-0.2-0.2-0.2c-0.4-0.4-1.1-1.1-1.5-1.5
		s-1.1-1.1-1.5-1.5c-0.8-0.8-1.9-0.8-2.7-0.2c-0.2,0-0.2,0.2-0.2,0.2c-0.8,0.8-1.3,1.3-2.1,2.1c-0.6,0.6-0.9,1.3-1.1,2.1
		c0,1.3,0.2,2.7,0.8,3.8c0.9,2.7,2.5,4.9,4.2,7c2.3,2.8,5.3,5.1,8.7,6.8c1.5,0.8,3.2,1.3,4.7,1.3c1.1,0.2,2.3-0.4,3-1.1
		c0.6-0.6,1.1-1.1,1.7-1.7c0.8-0.8,0.9-1.9,0.2-2.7c-0.2-0.2-0.2-0.2-0.2-0.2C394.7,74.9,393.5,73.7,392.6,72.8z"/>
	<path id="Path_165_1_" class="st28" d="M755.8,107c-1-1-2.4-1-3.4-0.2c-0.2,0-0.2,0.2-0.2,0.2c-1,1-1.6,1.6-2.6,2.6
		c-0.2,0.2-0.5,0.2-0.7,0.2l0,0c-0.5-0.2-1-0.5-1.6-1c-2.4-1.4-4.5-3.4-6.1-5.5c-1-1-1.6-2.1-2.1-3.5c-0.2-0.2,0-0.5,0.2-0.5
		c1-0.7,1.6-1.6,2.4-2.4c1-1,1.1-2.4,0.2-3.4c-0.2-0.2-0.2-0.2-0.2-0.2c-0.5-0.5-1.4-1.4-1.9-1.9s-1.4-1.4-1.9-1.9
		c-1-1-2.4-1-3.4-0.2c-0.2,0-0.2,0.2-0.2,0.2c-1,1-1.6,1.6-2.6,2.6c-0.7,0.7-1.1,1.6-1.4,2.6c0,1.6,0.2,3.4,1,4.7
		c1.1,3.4,3.1,6.1,5.2,8.7c2.9,3.5,6.6,6.3,10.8,8.4c1.9,1,4,1.6,5.8,1.6c1.4,0.2,2.9-0.5,3.7-1.4c0.7-0.7,1.4-1.4,2.1-2.1
		c1-1,1.1-2.4,0.2-3.4c-0.2-0.2-0.2-0.2-0.2-0.2C758.4,109.6,756.9,108.1,755.8,107z"/>
	<path id="Path_165_54_" class="st31" d="M631.7,171.7c-0.8-0.9-2.1-0.9-2.9-0.3c-0.1,0-0.1,0.1-0.3,0.3c-0.8,0.8-1.4,1.4-2.2,2.2
		c-0.1,0.1-0.4,0.3-0.7,0.1l0,0c-0.5-0.3-0.9-0.5-1.4-0.8c-2.1-1.3-3.9-3-5.5-5c-0.8-0.9-1.4-2-2-3.2c-0.1-0.1,0-0.4,0.1-0.5
		c0.8-0.7,1.4-1.4,2.1-2.1c0.9-0.8,1.1-2.1,0.3-2.9c-0.1-0.1-0.1-0.1-0.3-0.3c-0.5-0.5-1.2-1.2-1.7-1.7s-1.2-1.2-1.7-1.7
		c-0.8-0.9-2.1-0.9-2.9-0.1c-0.1,0-0.1,0.1-0.1,0.1c-0.8,0.8-1.4,1.4-2.2,2.2c-0.7,0.7-1.1,1.4-1.2,2.4c0,1.4,0.3,3,0.8,4.3
		c1.1,2.9,2.7,5.5,4.7,7.9c2.6,3.2,5.9,5.8,9.7,7.6c1.7,0.9,3.5,1.4,5.4,1.6c1.3,0.1,2.5-0.4,3.4-1.3c0.7-0.7,1.3-1.3,2-2
		c0.9-0.8,1.1-2.1,0.3-2.9c-0.1-0.1-0.1-0.1-0.3-0.3C634,174,632.9,172.9,631.7,171.7z"/>
	<path id="Path_165_111_" class="st4" d="M740.2,165.2c-0.6-0.7-1.7-0.7-2.3-0.2c-0.1,0-0.1,0.1-0.2,0.2c-0.6,0.6-1.1,1.1-1.7,1.7
		c-0.1,0.1-0.3,0.2-0.6,0.1l0,0c-0.4-0.2-0.7-0.4-1.1-0.6c-1.7-1-3.1-2.4-4.4-4c-0.6-0.7-1.1-1.6-1.6-2.5c-0.1-0.1,0-0.3,0.1-0.4
		c0.6-0.6,1.1-1.1,1.7-1.7c0.7-0.6,0.9-1.7,0.2-2.3c-0.1-0.1-0.1-0.1-0.2-0.2c-0.4-0.4-0.9-0.9-1.3-1.3c-0.4-0.4-0.9-0.9-1.3-1.3
		c-0.6-0.7-1.7-0.7-2.3-0.1c-0.1,0-0.1,0.1-0.1,0.1c-0.6,0.6-1.1,1.1-1.7,1.7c-0.6,0.6-0.9,1.1-0.9,1.9c0,1.1,0.2,2.4,0.6,3.4
		c0.9,2.3,2.1,4.4,3.7,6.2c2.1,2.5,4.7,4.6,7.7,6c1.3,0.7,2.8,1.1,4.3,1.3c1,0.1,2-0.3,2.7-1c0.6-0.6,1-1,1.6-1.6
		c0.7-0.6,0.9-1.7,0.2-2.3c-0.1-0.1-0.1-0.1-0.2-0.2C742,167,741.2,166.1,740.2,165.2z"/>
	<path id="Union_1_60_" class="st10" d="M630.1,66.6c-1,0-2-0.2-2.9-1.2c-0.7-0.7-1.2-1.7-1.2-2.9V43.1c0.7,0.7,1.5,1.5,2.6,2
		c5.8,4.1,9.9,7,12,8.4c0.7,0.7,1.7,1.2,2.4,1.5c0.7,0.5,1.5,0.7,2.4,1.2c0.7,0.2,1.7,0.5,2.6,0.5l0,0c0.7,0,2-0.2,2.6-0.5
		c0.7-0.2,1.5-0.7,2.4-1.2c0.5-0.2,1.2-0.7,2.4-1.5c2.9-2,7-4.8,12-8.4c0.7-0.5,1.7-1.2,2.6-2v19.5c0,1-0.2,2-1.2,2.9
		c-0.7,0.7-1.7,1.2-2.9,1.2L630.1,66.6L630.1,66.6L630.1,66.6z M648,54.1L648,54.1c-0.5,0-0.7,0-1.2-0.2s-0.7-0.2-1.2-0.7
		c-0.5-0.2-0.7-0.5-1.2-0.7c-0.2-0.2-0.7-0.5-1.2-0.7s-0.7-0.7-1-0.7c-1.2-1-3.6-2.6-6.3-4.3c-2.9-2-4.3-3.1-5.1-3.6
		c-1-0.7-2-1.7-2.9-2.9c-0.7-0.7-1.2-2-1.2-3.4c0-1.2,0.2-2.4,1-3.1c0.7-0.7,1.7-1.2,3.1-1.2h36c1,0,2,0.2,2.9,1.2
		c0.7,0.7,1.2,1.7,1.2,2.9s-0.2,2.6-1.2,3.6c-0.7,1.2-1.7,2.4-3.1,3.1c-6.1,4.1-9.9,7-11.6,7.9c-0.2,0.2-0.5,0.2-1,0.7
		c-0.5,0.2-1,0.7-1.2,0.7c-0.2,0.2-0.7,0.5-1.2,0.7s-0.7,0.5-1.2,0.7C649,53.8,648.5,54.1,648,54.1L648,54.1z"/>
	<path id="Union_1_1_" class="st10" d="M761.4,155.1c-0.6,0-1.2-0.1-1.7-0.7c-0.4-0.4-0.7-1-0.7-1.7V141c0.4,0.4,0.9,0.9,1.6,1.2
		c3.5,2.5,6,4.2,7.2,5.1c0.4,0.4,1,0.7,1.4,0.9c0.4,0.3,0.9,0.4,1.4,0.7c0.4,0.1,1,0.3,1.6,0.3l0,0c0.4,0,1.2-0.1,1.6-0.3
		c0.4-0.1,0.9-0.4,1.4-0.7c0.3-0.1,0.7-0.4,1.4-0.9c1.7-1.2,4.2-2.9,7.2-5.1c0.4-0.3,1-0.7,1.6-1.2v11.7c0,0.6-0.1,1.2-0.7,1.7
		c-0.4,0.4-1,0.7-1.7,0.7H761.4L761.4,155.1z M772.2,147.5L772.2,147.5c-0.3,0-0.4,0-0.7-0.1s-0.4-0.1-0.7-0.4
		c-0.3-0.1-0.4-0.3-0.7-0.4c-0.1-0.1-0.4-0.3-0.7-0.4c-0.3-0.1-0.4-0.4-0.6-0.4c-0.7-0.6-2.2-1.6-3.8-2.6c-1.7-1.2-2.6-1.9-3.1-2.2
		c-0.6-0.4-1.2-1-1.7-1.7c-0.4-0.4-0.7-1.2-0.7-2c0-0.7,0.1-1.4,0.6-1.9c0.4-0.4,1-0.7,1.9-0.7h21.7c0.6,0,1.2,0.1,1.7,0.7
		c0.4,0.4,0.7,1,0.7,1.7s-0.1,1.6-0.7,2.2c-0.4,0.7-1,1.4-1.9,1.9c-3.7,2.5-6,4.2-6.9,4.8c-0.1,0.1-0.3,0.1-0.6,0.4
		c-0.3,0.1-0.6,0.4-0.7,0.4c-0.1,0.1-0.4,0.3-0.7,0.4s-0.4,0.3-0.7,0.4C772.8,147.4,772.5,147.5,772.2,147.5L772.2,147.5z"/>
	<path id="Union_1_59_" class="st30" d="M689.1,163c-0.5,0-0.9-0.1-1.3-0.6c-0.4-0.4-0.6-0.8-0.6-1.3v-8.9c0.4,0.4,0.7,0.7,1.2,0.9
		c2.7,1.9,4.6,3.2,5.5,3.9c0.4,0.4,0.8,0.6,1.1,0.7c0.4,0.2,0.7,0.4,1.1,0.6c0.4,0.1,0.8,0.2,1.2,0.2l0,0c0.4,0,0.9-0.1,1.2-0.2
		c0.4-0.1,0.7-0.4,1.1-0.6c0.2-0.1,0.6-0.4,1.1-0.7c1.3-0.9,3.2-2.2,5.5-3.9c0.4-0.2,0.8-0.6,1.2-0.9v8.9c0,0.5-0.1,0.9-0.6,1.3
		c-0.4,0.4-0.8,0.6-1.3,0.6H689.1L689.1,163z M697.3,157.3L697.3,157.3c-0.2,0-0.4,0-0.6-0.1c-0.2-0.1-0.4-0.1-0.6-0.4
		c-0.2-0.1-0.4-0.2-0.6-0.4c-0.1-0.1-0.4-0.2-0.6-0.4c-0.2-0.1-0.4-0.4-0.5-0.4c-0.6-0.5-1.6-1.2-2.9-2c-1.3-0.9-2-1.4-2.3-1.6
		c-0.5-0.4-0.9-0.8-1.3-1.3c-0.4-0.4-0.6-0.9-0.6-1.5s0.1-1.1,0.5-1.4c0.4-0.4,0.8-0.6,1.4-0.6h16.5c0.5,0,0.9,0.1,1.3,0.6
		c0.4,0.4,0.6,0.8,0.6,1.3c0,0.6-0.1,1.2-0.6,1.6c-0.4,0.6-0.8,1.1-1.4,1.4c-2.8,1.9-4.6,3.2-5.3,3.6c-0.1,0.1-0.2,0.1-0.5,0.4
		c-0.2,0.1-0.5,0.4-0.6,0.4c-0.1,0.1-0.4,0.2-0.6,0.4c-0.2,0.2-0.4,0.2-0.6,0.4C697.8,157.2,697.5,157.3,697.3,157.3L697.3,157.3z"
		/>
	<path id="Union_1_55_" class="st10" d="M421.7,60.7c-0.9,0-1.8-0.4-2.4-1.1c-0.5-0.5-1.1-1.5-1.1-2.4V40.6c0.5,0.7,1.3,1.3,2.2,1.8
		c5.1,3.4,8.5,5.8,10.3,7.3c0.7,0.5,1.5,1.1,2,1.3c0.5,0.4,1.3,0.7,2,1.1s1.5,0.4,2.2,0.4l0,0c0.7,0,1.6-0.2,2.2-0.4
		c0.7-0.4,1.3-0.5,2-1.1c0.4-0.4,1.3-0.7,2-1.3c2.4-1.6,5.8-4,10.3-7.3c0.7-0.4,1.5-1.3,2.2-1.8v16.7c0,0.9-0.4,1.8-1.1,2.4
		c-0.5,0.5-1.5,1.1-2.4,1.1L421.7,60.7L421.7,60.7z M437.1,50L437.1,50c-0.4,0-0.7,0-1.1-0.2s-0.7-0.4-1.3-0.5
		c-0.4-0.4-0.7-0.4-1.1-0.7s-0.7-0.4-1.3-0.7c-0.4-0.4-0.7-0.5-0.9-0.5c-1.3-0.9-3.1-2.2-5.6-3.8c-2.4-1.6-3.8-2.7-4.4-3.1
		c-0.9-0.5-1.8-1.5-2.4-2.4c-0.7-0.7-1.1-1.8-1.3-2.9c0-1.1,0.4-2,0.9-2.7s1.5-1.3,2.5-1.1h30.6c0.9,0,1.8,0.4,2.4,1.1
		c0.5,0.5,1.1,1.5,1.1,2.4c0,1.3-0.4,2.2-1.1,3.1c-0.7,1.1-1.5,2-2.5,2.5c-5.3,3.6-8.5,5.8-9.8,6.7c-0.2,0.2-0.4,0.4-0.9,0.5
		c-0.4,0.4-0.9,0.5-1.3,0.7s-0.5,0.4-1.1,0.7c-0.4,0.4-0.7,0.4-1.3,0.5C437.8,49.8,437.3,50,437.1,50L437.1,50z"/>
	<path id="Path_158_2_" class="st32" d="M1033.4,10.3h-20.3c-4.4,0-7.8,3.5-7.6,7.9V26c0,4.4,3.4,7.8,7.6,7.9h13l9.3,7.6v-7.9
		c3.4-0.9,5.9-4,5.8-7.6v-7.8C1041,13.9,1037.7,10.4,1033.4,10.3z"/>
	<path id="Path_158_124_" class="st33" d="M1127.8,88.3H1109c-4.1,0-7.2,3.2-7,7.3v7.2c0,4.1,3.1,7.2,7,7.3h12l8.6,7v-7.3
		c3.1-0.8,5.5-3.7,5.3-7v-7.2C1134.8,91.7,1131.7,88.4,1127.8,88.3z"/>
	<path id="Path_158_39_" class="st32" d="M849.9,120.3h-15.7c-3.4,0-6,2.7-5.9,6.1v6c0,3.4,2.6,6,5.9,6.1h10l7.2,5.9v-6.1
		c2.6-0.7,4.5-3.1,4.5-5.9v-6C855.8,123.1,853.2,120.4,849.9,120.3z"/>
	<path id="Path_158_1_" class="st32" d="M948.9,15h-15.7c-3.4,0-6,2.7-5.9,6.1v6c0,3.4,2.6,6,5.9,6.1h10l7.2,5.9V33
		c2.6-0.7,4.5-3.1,4.5-5.9v-6C954.8,17.8,952.2,15.1,948.9,15z"/>
	<path id="Path_165_39_" class="st34" d="M916.7,50.5c-1.3-1.3-3.1-1.3-4.3-0.3c-0.3,0-0.3,0.3-0.3,0.3c-1.3,1.3-2.2,2.2-3.4,3.4
		c-0.3,0.3-0.6,0.3-0.9,0.3l0,0c-0.6-0.3-1.3-0.6-2.2-1.3c-3.1-1.9-5.9-4.3-8-7.1c-1.3-1.3-2.2-2.8-2.8-4.6c-0.3-0.3,0-0.6,0.3-0.6
		c1.3-0.9,2.2-2.2,3.1-3.1c1.3-1.3,1.5-3.1,0.3-4.3c-0.3-0.3-0.3-0.3-0.3-0.3c-0.6-0.6-1.9-1.9-2.4-2.4c-0.6-0.6-1.9-1.9-2.4-2.4
		c-1.3-1.3-3.1-1.3-4.3-0.3c-0.3,0-0.3,0.3-0.3,0.3c-1.3,1.3-2.2,2.2-3.4,3.4c-0.9,0.9-1.5,2.2-1.9,3.4c0,2.2,0.3,4.3,1.3,6.1
		c1.5,4.3,4,8,6.8,11.4c3.7,4.6,8.7,8.3,14.2,11.1c2.4,1.3,5.2,2.2,7.7,2.2c1.9,0.3,3.7-0.6,5-1.9c0.9-0.9,1.9-1.9,2.8-2.8
		c1.3-1.3,1.5-3.1,0.3-4.3c-0.3-0.3-0.3-0.3-0.3-0.3C920.2,53.9,918.3,52,916.7,50.5z"/>
	<path id="Path_165_112_" class="st34" d="M1108,71.8c-0.8-0.8-1.8-0.8-2.6-0.2c-0.2,0-0.2,0.2-0.2,0.2c-0.8,0.8-1.3,1.3-2,2
		c-0.2,0.2-0.3,0.2-0.6,0.2l0,0c-0.3-0.2-0.8-0.3-1.3-0.8c-1.8-1.1-3.5-2.6-4.8-4.2c-0.8-0.8-1.3-1.6-1.7-2.8
		c-0.2-0.2,0-0.3,0.2-0.3c0.8-0.5,1.3-1.3,1.8-1.9c0.8-0.8,0.9-1.8,0.2-2.5c-0.2-0.2-0.2-0.2-0.2-0.2c-0.3-0.3-1.1-1.1-1.4-1.5
		c-0.3-0.3-1.1-1.1-1.5-1.5c-0.8-0.8-1.8-0.8-2.5-0.2c-0.2,0-0.2,0.2-0.2,0.2c-0.8,0.8-1.3,1.3-2,2c-0.5,0.5-0.9,1.3-1.1,2
		c0,1.3,0.2,2.5,0.8,3.7c0.9,2.5,2.4,4.7,4,6.8c2.2,2.8,5.2,5,8.5,6.6c1.4,0.8,3.1,1.3,4.6,1.3c1.1,0.2,2.2-0.3,2.9-1.1
		c0.6-0.6,1.1-1.1,1.7-1.7c0.8-0.8,0.9-1.8,0.2-2.6c-0.2-0.2-0.2-0.2-0.2-0.2C1110,73.8,1108.9,72.7,1108,71.8z"/>
	<path id="Path_165_37_" class="st34" d="M833.2,162.9c-0.8-0.9-2-0.9-2.8-0.2c-0.2,0-0.2,0.2-0.2,0.2c-0.8,0.8-1.4,1.4-2.2,2.2
		c-0.2,0.2-0.4,0.2-0.7,0.2l0,0c-0.5-0.2-0.9-0.5-1.4-0.8c-2-1.3-3.8-2.9-5.4-4.8c-0.8-0.9-1.4-2-2-3.1c-0.2-0.2,0-0.4,0.2-0.5
		c0.8-0.7,1.4-1.4,2-2c0.9-0.8,1.1-2,0.2-2.8c-0.2-0.2-0.2-0.2-0.2-0.2c-0.5-0.5-1.1-1.1-1.6-1.6s-1.1-1.1-1.6-1.6
		c-0.8-0.9-2-0.9-2.8-0.2c-0.2,0-0.2,0.2-0.2,0.2c-0.8,0.8-1.4,1.4-2.2,2.2c-0.7,0.7-1.1,1.4-1.1,2.3c0,1.4,0.2,2.9,0.8,4.2
		c1.1,2.8,2.7,5.4,4.6,7.7c2.5,3.1,5.7,5.6,9.5,7.4c1.6,0.9,3.4,1.4,5.2,1.6c1.3,0.2,2.5-0.4,3.3-1.3c0.7-0.7,1.3-1.3,2-2
		c0.9-0.8,1.1-2,0.2-2.8c-0.2-0.2-0.2-0.2-0.2-0.2C835.5,165.2,834.4,164.1,833.2,162.9z"/>
	<path id="Union_1_41_" class="st33" d="M848.3,104c-0.8,0-1.6-0.2-2.2-1c-0.6-0.6-1-1.4-1-2.2V85.5c0.6,0.6,1.2,1.2,2,1.6
		c4.7,3.3,7.8,5.5,9.4,6.6c0.6,0.6,1.4,1,1.8,1.2c0.6,0.4,1.2,0.6,1.8,1c0.6,0.2,1.4,0.4,2,0.4l0,0c0.6,0,1.6-0.2,2-0.4
		c0.6-0.2,1.2-0.6,1.8-1c0.4-0.2,1-0.6,1.8-1.2c2.2-1.6,5.5-3.8,9.4-6.6c0.6-0.4,1.4-1,2-1.6v15.2c0,0.8-0.2,1.6-1,2.2
		c-0.6,0.6-1.4,1-2.2,1L848.3,104L848.3,104L848.3,104z M862.4,94.2L862.4,94.2c-0.4,0-0.6,0-1-0.2c-0.4-0.2-0.6-0.2-1-0.6
		c-0.4-0.2-0.6-0.4-1-0.6c-0.2-0.2-0.6-0.4-1-0.6c-0.4-0.2-0.6-0.6-0.8-0.6c-1-0.8-2.8-2-5-3.4c-2.2-1.6-3.4-2.4-4.1-2.8
		c-0.8-0.6-1.6-1.4-2.2-2.2c-0.6-0.6-1-1.6-1-2.6c0-1.1,0.2-1.8,0.8-2.4c0.6-0.6,1.4-1,2.4-1h28.2c0.8,0,1.6,0.2,2.2,1
		c0.6,0.6,1,1.4,1,2.2c0,1-0.2,2-1,2.8c-0.6,1-1.4,1.8-2.4,2.4c-4.8,3.3-7.8,5.5-9.1,6.3c-0.2,0.2-0.4,0.2-0.8,0.6
		c-0.4,0.2-0.8,0.6-1,0.6c-0.2,0.2-0.6,0.4-1,0.6s-0.6,0.4-1,0.6C863.2,94,862.7,94.2,862.4,94.2L862.4,94.2z"/>
	<path id="Union_1_2_" class="st33" d="M974.3,25.9c-0.5,0-1-0.1-1.4-0.6c-0.4-0.4-0.6-0.9-0.6-1.4v-9.7c0.4,0.4,0.8,0.8,1.3,1
		c2.9,2.1,4.9,3.4,5.9,4.2c0.4,0.4,0.9,0.6,1.2,0.8c0.4,0.3,0.8,0.4,1.2,0.6c0.4,0.1,0.9,0.3,1.3,0.3l0,0c0.4,0,1-0.1,1.3-0.3
		c0.4-0.1,0.8-0.4,1.2-0.6c0.3-0.1,0.6-0.4,1.2-0.8c1.4-1,3.4-2.4,5.9-4.2c0.4-0.3,0.9-0.6,1.3-1v9.6c0,0.5-0.1,1-0.6,1.4
		c-0.4,0.4-0.9,0.6-1.4,0.6L974.3,25.9L974.3,25.9L974.3,25.9z M983.2,19.7L983.2,19.7c-0.3,0-0.4,0-0.6-0.1
		c-0.2-0.1-0.4-0.1-0.6-0.4c-0.3-0.1-0.4-0.3-0.6-0.4c-0.1-0.1-0.4-0.3-0.6-0.4c-0.3-0.1-0.4-0.4-0.5-0.4c-0.6-0.5-1.8-1.3-3.2-2.2
		c-1.4-1-2.2-1.5-2.6-1.8c-0.5-0.4-1-0.9-1.4-1.4c-0.4-0.4-0.6-1-0.6-1.7s0.1-1.2,0.5-1.5c0.4-0.4,0.9-0.6,1.5-0.6h17.8
		c0.5,0,1,0.1,1.4,0.6c0.4,0.4,0.6,0.9,0.6,1.4c0,0.6-0.1,1.3-0.6,1.8c-0.4,0.6-0.9,1.2-1.5,1.5c-3.1,2.1-4.9,3.4-5.7,3.9
		c-0.1,0.1-0.3,0.1-0.5,0.4c-0.3,0.1-0.5,0.4-0.6,0.4c-0.1,0.1-0.4,0.3-0.6,0.4c-0.2,0.1-0.4,0.3-0.6,0.4
		C983.7,19.5,983.4,19.7,983.2,19.7L983.2,19.7z"/>
	<path id="Union_1_114_" class="st32" d="M1059.9,54.9c-0.5,0-1-0.1-1.4-0.6c-0.4-0.4-0.6-0.9-0.6-1.4v-9.7c0.4,0.4,0.8,0.8,1.3,1
		c2.9,2.1,4.9,3.4,5.9,4.2c0.4,0.4,0.9,0.6,1.2,0.8c0.4,0.3,0.8,0.4,1.2,0.6c0.4,0.1,0.9,0.3,1.3,0.3l0,0c0.4,0,1-0.1,1.3-0.3
		c0.4-0.1,0.8-0.4,1.2-0.6c0.3-0.1,0.6-0.4,1.2-0.8c1.4-1,3.4-2.4,5.9-4.2c0.4-0.3,0.9-0.6,1.3-1v9.6c0,0.5-0.1,1-0.6,1.4
		c-0.4,0.4-0.9,0.6-1.4,0.6L1059.9,54.9L1059.9,54.9z M1068.8,48.7L1068.8,48.7c-0.3,0-0.4,0-0.6-0.1s-0.4-0.1-0.6-0.4
		c-0.3-0.1-0.4-0.3-0.6-0.4c-0.1-0.1-0.4-0.3-0.6-0.4c-0.3-0.1-0.4-0.4-0.5-0.4c-0.6-0.5-1.8-1.3-3.2-2.2c-1.4-1-2.2-1.5-2.6-1.8
		c-0.5-0.4-1-0.9-1.4-1.4c-0.4-0.4-0.6-1-0.6-1.7s0.1-1.2,0.5-1.5c0.4-0.4,0.9-0.6,1.5-0.6h17.8c0.5,0,1,0.1,1.4,0.6
		c0.4,0.4,0.6,0.9,0.6,1.4c0,0.6-0.1,1.3-0.6,1.8c-0.4,0.6-0.9,1.2-1.5,1.5c-3.1,2.1-4.9,3.4-5.7,3.9c-0.1,0.1-0.3,0.1-0.5,0.4
		c-0.3,0.1-0.5,0.4-0.6,0.4c-0.1,0.1-0.4,0.3-0.6,0.4s-0.4,0.3-0.6,0.4C1069.3,48.6,1069,48.7,1068.8,48.7L1068.8,48.7z"/>
</g>
<g>
	<g>
		<g>
			<g>
				<g>
					<g>
						<g>
							<g>
								<rect x="1081" y="189.6" class="st35" width="281.2" height="220.3"/>
							</g>
						</g>
					</g>
				</g>
			</g>
		</g>
		<path class="st32" d="M1118.4,239.8H1100c-1.6,0-3-1.3-3-3V231c0-1.6,1.3-3,3-3h18.4c1.6,0,3,1.3,3,3v5.8
			C1121.4,238.5,1120.1,239.8,1118.4,239.8z"/>
		<path class="st32" d="M1130.6,223.5h-18.4c-1.6,0-3-1.3-3-3v-5.8c0-1.6,1.3-3,3-3h18.4c1.6,0,3,1.3,3,3v5.8
			C1133.6,222.1,1132.2,223.5,1130.6,223.5z"/>
		<path class="st32" d="M1342.7,328h-18.4c-1.6,0-3-1.3-3-3v-5.8c0-1.6,1.3-3,3-3h18.4c1.6,0,3,1.3,3,3v5.8
			C1345.6,326.7,1344.3,328,1342.7,328z"/>
		<path class="st32" d="M1354.8,311.7h-18.4c-1.6,0-3-1.3-3-3v-5.8c0-1.6,1.3-3,3-3h18.4c1.6,0,3,1.3,3,3v5.8
			C1357.8,310.4,1356.5,311.7,1354.8,311.7z"/>
		<path class="st32" d="M1109.5,400.9H1091c-1.6,0-3-1.3-3-3v-5.8c0-1.6,1.3-3,3-3h18.4c1.6,0,3,1.3,3,3v5.8
			C1112.4,399.6,1111.1,400.9,1109.5,400.9z"/>
		<path class="st32" d="M1121.7,384.6h-18.4c-1.6,0-3-1.3-3-3v-5.8c0-1.6,1.3-3,3-3h18.4c1.6,0,3,1.3,3,3v5.8
			C1124.6,383.3,1123.3,384.6,1121.7,384.6z"/>
		<path class="st32" d="M1333.8,227.8h18.4c1.6,0,3-1.3,3-3V219c0-1.6-1.3-3-3-3h-18.4c-1.6,0-3,1.3-3,3v5.8
			C1330.8,226.5,1332.2,227.8,1333.8,227.8z"/>
		<path class="st32" d="M1321.6,211.5h18.4c1.6,0,3-1.3,3-3v-5.8c0-1.6-1.3-3-3-3h-18.4c-1.6,0-3,1.3-3,3v5.8
			C1318.7,210.2,1320,211.5,1321.6,211.5z"/>
	</g>
	<g id="XMLID_175_">
		<g id="XMLID_176_">
			<g>
				<g>
					<g>
						<g>
							<g>
								<g>
									<rect x="1272.4" y="259.4" class="st36" width="64.6" height="150.5"/>
								</g>
							</g>
						</g>
					</g>
				</g>
			</g>
		</g>
	</g>
	<g id="XMLID_173_">
		<g id="XMLID_174_">
			<g>
				<g>
					<g>
						<g>
							<g>
								<g>
									<rect x="1101" y="269.6" class="st37" width="150.4" height="91.7"/>
								</g>
							</g>
						</g>
					</g>
				</g>
			</g>
		</g>
	</g>
	<path class="st38" d="M1239.7,362.2c-0.2-0.4-8.6-15.6-13.6-14.8c-5,0.8,5.9,16.4,12.5,20.5
		C1238.6,367.9,1244.4,370.3,1239.7,362.2z"/>
	<g>
		<path class="st38" d="M1099.6,359.3c-0.1-0.6-3.4-25.9,2.9-29.2s6.9,24.6,3.1,35.1C1105.5,365.2,1101,373,1099.6,359.3z"/>
	</g>
	<g>
		<path class="st38" d="M1113.3,361.4c0.2-0.4,9.2-16.7,14.6-15.9c5.4,0.9-6.3,17.6-13.4,22C1114.5,367.5,1108.3,370,1113.3,361.4z"
			/>
	</g>
	<g>
		<path class="st38" d="M1107.5,360.8c0-0.5,1.3-19.3,8-20.8c6.7-1.6,2.5,18.8-3.2,25.9C1112.3,365.8,1106.4,370.9,1107.5,360.8z"/>
	</g>
	<g>
		<path class="st38" d="M1250.9,360.3c0.1-0.6,3.1-24.2-2.7-27.3c-5.8-3.1-6.5,22.9-2.9,32.7C1245.3,365.8,1249.5,373,1250.9,360.3z
			"/>
	</g>
	<g>
		<path class="st38" d="M1245.1,361.6c0-0.4-1.2-18-7.5-19.4c-6.3-1.5-2.3,17.5,3,24.1C1240.7,366.3,1246.1,371.1,1245.1,361.6z"/>
	</g>
	<g>
		<path class="st27" d="M1129.3,334.8c-0.5-0.5-1.3-0.3-2.1,0.3c0-1.2-0.4-2.1-1.1-2.3c-0.7-0.1-1.4,0.6-2,1.7
			c-0.5-0.9-1.2-1.4-1.8-1.2c-0.9,0.3-1.4,2.1-1,4c0.4,1.7,1.5,3,2.9,3.5c1.8,0.6,3.7-0.7,4.7-2.4
			C1129.5,337.5,1130.2,335.7,1129.3,334.8z"/>
	</g>
	<g>
		<g>
			<path class="st15" d="M1202.5,357.6c1.1,1.1,1.1,2.8,0,3.9s-2.8,1.1-3.9,0s-1.1-2.8,0-3.9S1201.5,356.5,1202.5,357.6z"/>
		</g>
	</g>
	<g>
		<g>
			<ellipse class="st39" cx="1200.6" cy="359.5" rx="1.2" ry="1.1"/>
		</g>
	</g>
	<g>
		<g>
			<path class="st40" d="M1241.1,333.7c1.3,1.3,1.3,3.3,0,4.6c-1.3,1.3-3.3,1.3-4.6,0c-1.3-1.3-1.3-3.3,0-4.6
				C1237.8,332.5,1239.8,332.5,1241.1,333.7z"/>
		</g>
	</g>
	<g>
		<g>
			<path class="st41" d="M1240.2,336c0,0.7-0.6,1.2-1.4,1.2s-1.4-0.6-1.4-1.2c0-0.7,0.6-1.2,1.4-1.2S1240.2,335.3,1240.2,336z"/>
		</g>
	</g>
	<g>
		<path class="st27" d="M1121.1,325c-0.7-0.7-1.9-0.5-3.1,0.4c0-1.8-0.7-3.2-1.7-3.4c-1-0.2-2.2,0.8-3,2.6c-0.8-1.4-1.8-2.1-2.8-1.8
			c-1.4,0.5-2.1,3.2-1.5,6.1c0.5,2.5,2.2,4.6,4.4,5.3c2.7,0.8,5.5-1,7.1-3.7C1121.4,329,1122.5,326.3,1121.1,325z"/>
	</g>
	<g>
		<path class="st27" d="M1228.2,330.7c-1-0.1-1.8,0.8-2.2,2.3c-1.2-1.4-2.5-2.1-3.5-1.6c-0.9,0.5-1.2,2-0.7,3.9
			c-1.5-0.6-2.8-0.5-3.3,0.4c-0.8,1.3,0.4,3.8,2.6,5.7c2,1.6,4.6,2.2,6.7,1.3c2.6-1,3.6-4.3,3.2-7.3
			C1230.9,333.7,1230,330.9,1228.2,330.7z"/>
	</g>
	<g id="XMLID_171_">
		<g id="XMLID_172_">
			<g>
				<g>
					<g>
						<g>
							<g>
								<g>
									<rect x="1281.7" y="270.6" class="st37" width="45.8" height="123.8"/>
								</g>
							</g>
						</g>
					</g>
				</g>
			</g>
		</g>
	</g>
	<g id="XMLID_169_">
		<g id="XMLID_170_">
			<g>
				<g>
					<g>
						<g>
							<g>
								<g>
									<path class="st15" d="M1233,298.1c-8.2,7.4-16.3,14.9-24.5,22.3c-2,1.8,1,4.8,3,3c8.2-7.4,16.3-14.9,24.5-22.3
										C1238,299.3,1235,296.3,1233,298.1L1233,298.1z"/>
								</g>
							</g>
						</g>
					</g>
				</g>
			</g>
		</g>
	</g>
	<g id="XMLID_167_">
		<g id="XMLID_168_">
			<g>
				<g>
					<g>
						<g>
							<g>
								<g>
									<path class="st15" d="M1237.4,309c-4.7,4.9-9.3,9.9-14,14.8c-1.9,2,1.1,5,3,3c4.7-4.9,9.3-9.9,14-14.8
										C1242.2,310,1239.3,307,1237.4,309L1237.4,309z"/>
								</g>
							</g>
						</g>
					</g>
				</g>
			</g>
		</g>
	</g>
	<g id="XMLID_194_">
		<g id="XMLID_195_">
			<g>
				<g>
					<g>
						<g>
							<g>
								<g>
									<path class="st15" d="M1316.4,298.1c-8.2,7.4-16.3,14.9-24.5,22.3c-2,1.8,1,4.8,3,3c8.2-7.4,16.3-14.9,24.5-22.3
										C1321.4,299.3,1318.4,296.3,1316.4,298.1L1316.4,298.1z"/>
								</g>
							</g>
						</g>
					</g>
				</g>
			</g>
		</g>
	</g>
	<g id="XMLID_192_">
		<g id="XMLID_193_">
			<g>
				<g>
					<g>
						<g>
							<g>
								<g>
									<path class="st15" d="M1320.8,309c-4.7,4.9-9.3,9.9-14,14.8c-1.9,2,1.1,5,3,3c4.7-4.9,9.3-9.9,14-14.8
										C1325.7,310,1322.7,307,1320.8,309L1320.8,309z"/>
								</g>
							</g>
						</g>
					</g>
				</g>
			</g>
		</g>
	</g>
	<g id="XMLID_164_">
		<g>
			<g>
				<g>
					<g>
						<g>
							<g>
								<path class="st27" d="M1330,348.6c0,2.1-1.7,3.9-3.9,3.9c-2.1,0-3.9-1.7-3.9-3.9c0-2.1,1.7-3.9,3.9-3.9
									C1328.2,344.7,1330,346.5,1330,348.6z"/>
							</g>
						</g>
					</g>
				</g>
			</g>
		</g>
	</g>
	<g>
		<g>
			<g>
				<g>
					<g>
						<g>
							<g>
								<g>
									<path class="st42" d="M1086.2,240.3h-34.8c-0.5,0-1-0.3-1.3-0.9c-0.3-0.5-0.3-1.2-0.1-1.8l17.4-48.7
										c0.2-0.7,0.8-1.1,1.4-1.1l0,0c0.6,0,1.2,0.4,1.4,1.1l17.4,48.7c0.2,0.6,0.2,1.3-0.1,1.8
										C1087.2,240,1086.8,240.3,1086.2,240.3z M1053.8,236.5h30l-15-42.1L1053.8,236.5z"/>
								</g>
							</g>
						</g>
					</g>
				</g>
			</g>
		</g>
		<g>
			<g>
				<g>
					<g>
						<g>
							<g>
								<g>
									<g>
										<path class="st39" d="M1049.4,236.7c0.3,10.5,8.8,19,19.4,19s19.2-8.5,19.4-19H1049.4z"/>
									</g>
								</g>
							</g>
						</g>
					</g>
				</g>
			</g>
			<g>
				<g>
					<path class="st27" d="M1060.7,247.1c-0.9,0.4-1.9,0-2.2-0.9c-0.4-0.9,0-1.9,0.9-2.2c0.9-0.4,1.9,0,2.2,0.9
						C1062,245.8,1061.6,246.8,1060.7,247.1z"/>
				</g>
			</g>
			<g>
				<g>
					<g>
						<path class="st43" d="M1082.3,276.7C1082.2,276.7,1082.2,276.7,1082.3,276.7c-0.5,0-0.9-0.4-0.9-0.9
							c0.5-8.3,1.1-19.2,0.4-30.2c-0.1-2.1-0.3-4.5-0.9-6.9c-0.5-2-0.9-3.2-2.3-3.3c-1.2,0-2,0.1-2.6,0.5s-0.9,1-1,1.6
							c0,0.5-0.5,0.8-0.9,0.8c-0.5,0-0.8-0.5-0.8-0.9c0.1-1.1,0.8-2.2,1.8-2.9c1.2-0.8,2.6-0.9,3.6-0.8c2.8,0.1,3.4,2.6,3.9,4.5
							c0.6,2.6,0.8,5.2,1,7.3c0.6,11.1,0.1,22-0.4,30.4C1083.1,276.3,1082.7,276.7,1082.3,276.7z"/>
					</g>
				</g>
			</g>
			<g>
				<g>
					<g>
						<path class="st27" d="M1084.2,277.3c-0.5,1.5-1.7,2.4-2.6,2.1c-1-0.3-1.4-1.8-0.9-3.3s1.7-2.4,2.6-2.1
							C1084.3,274.4,1084.7,275.9,1084.2,277.3z"/>
					</g>
				</g>
			</g>
			<g>
				<g>
					<g>
						<path class="st27" d="M1085.3,261c-0.9,0.4-1.9,0-2.2-0.9c-0.4-0.9,0-1.9,0.9-2.2c0.9-0.4,1.9,0,2.2,0.9
							C1086.6,259.6,1086.2,260.6,1085.3,261z"/>
					</g>
				</g>
			</g>
			<g>
				<g>
					<g>
						<path class="st27" d="M1081.8,247.7c-0.9,0.4-1.9,0-2.2-0.9c-0.4-0.9,0-1.9,0.9-2.2c0.9-0.4,1.9,0,2.2,0.9
							C1083,246.3,1082.6,247.3,1081.8,247.7z"/>
					</g>
				</g>
			</g>
			<g>
				<g>
					<g>
						<path class="st44" d="M1083.2,271.3c0,0-6.6,1.2-5.8,7.9C1077.4,279.2,1083.5,277.5,1083.2,271.3z"/>
					</g>
				</g>
			</g>
			<g>
				<g>
					<g>
						<path class="st44" d="M1082.3,240.3c0,0-7.2,1.3-6.4,8.6C1076,248.9,1082.6,247.1,1082.3,240.3z"/>
					</g>
				</g>
			</g>
			<g>
				<g>
					<g>
						<path class="st44" d="M1083.2,271.3c0,0-2.2,6.3,3.9,9C1087.1,280.3,1088.7,274.2,1083.2,271.3z"/>
					</g>
				</g>
			</g>
			<g>
				<g>
					<g>
						<path class="st44" d="M1083.7,254.9c0,0-1.3,6.4,5,8.1C1088.7,263,1089.4,256.9,1083.7,254.9z"/>
					</g>
				</g>
			</g>
			<g>
				<g>
					<g>
						<path class="st44" d="M1083,247.6c0,0,1,6.4,7.5,5.9C1090.4,253.5,1089,247.5,1083,247.6z"/>
					</g>
				</g>
			</g>
			<g>
				<g>
					<g>
						<path class="st44" d="M1076.1,270c0,0,6.8-0.7,6.6-7.5C1082.7,262.5,1076.4,263.7,1076.1,270z"/>
					</g>
				</g>
			</g>
			<g>
				<g>
					<g>
						<path class="st43" d="M1058.2,263.5c-0.3,0-0.6-0.2-0.6-0.6c-0.4-5.8-0.7-13.5-0.3-21.2c0.1-1.5,0.2-3.3,0.7-5
							c0.3-1.4,0.8-3.1,2.7-3.2c0.7,0,1.7,0,2.5,0.6c0.7,0.5,1.2,1.2,1.2,2c0,0.3-0.2,0.6-0.5,0.6s-0.6-0.2-0.6-0.5
							c0-0.4-0.3-0.9-0.7-1.1c-0.4-0.3-1-0.4-1.8-0.4c-1,0-1.3,0.8-1.6,2.2c-0.4,1.7-0.6,3.4-0.6,4.9c-0.4,7.7-0.1,15.3,0.3,21
							C1058.8,263.2,1058.5,263.5,1058.2,263.5L1058.2,263.5z"/>
					</g>
				</g>
			</g>
			<g>
				<g>
					<g>
						<path class="st27" d="M1056.8,264c0.3,1,1.2,1.7,1.8,1.5c0.7-0.2,1-1.2,0.6-2.3c-0.3-1-1.2-1.7-1.8-1.5
							C1056.8,261.9,1056.5,262.9,1056.8,264z"/>
					</g>
				</g>
			</g>
			<g>
				<g>
					<g>
						<path class="st27" d="M1056,252.5c0.6,0.3,1.3,0,1.6-0.6c0.3-0.6,0-1.3-0.6-1.6s-1.3,0-1.6,0.6
							C1055.1,251.6,1055.4,252.3,1056,252.5z"/>
					</g>
				</g>
			</g>
			<g>
				<g>
					<g>
						<path class="st27" d="M1058.5,243.3c0.6,0.3,1.3,0,1.6-0.6c0.3-0.6,0-1.3-0.6-1.6s-1.3,0-1.6,0.6S1057.9,243,1058.5,243.3z"/>
					</g>
				</g>
			</g>
			<g>
				<g>
					<g>
						<path class="st44" d="M1057.5,259.8c0,0,4.6,0.9,4.1,5.5C1061.5,265.3,1057.3,264.1,1057.5,259.8z"/>
					</g>
				</g>
			</g>
			<g>
				<g>
					<g>
						<path class="st44" d="M1058.1,238.1c0,0,5,0.9,4.4,6C1062.5,244.1,1057.9,242.8,1058.1,238.1z"/>
					</g>
				</g>
			</g>
			<g>
				<g>
					<g>
						<path class="st44" d="M1057.5,259.8c0,0,1.6,4.4-2.7,6.3C1054.8,266,1053.7,261.8,1057.5,259.8z"/>
					</g>
				</g>
			</g>
			<g>
				<g>
					<g>
						<path class="st44" d="M1057.1,248.3c0,0,0.9,4.4-3.5,5.7C1053.7,253.9,1053.2,249.7,1057.1,248.3z"/>
					</g>
				</g>
			</g>
			<g>
				<g>
					<g>
						<path class="st44" d="M1057.7,243.2c0,0-0.7,4.5-5.2,4.1C1052.4,247.3,1053.5,243.2,1057.7,243.2z"/>
					</g>
				</g>
			</g>
			<g>
				<g>
					<g>
						<path class="st44" d="M1062.4,258.8c0,0-4.7-0.5-4.6-5.2C1057.8,253.6,1062.2,254.4,1062.4,258.8z"/>
					</g>
				</g>
			</g>
			<g>
				<g>
					<path class="st44" d="M1080.7,236.1c0,0,5.2-0.5,5.1-5.8C1085.8,230.3,1080.9,231.2,1080.7,236.1z"/>
				</g>
			</g>
			<g>
				<g>
					<path class="st44" d="M1068.1,251.2c0,0,4.8,0.2,5.3-4.5C1073.4,246.6,1068.9,246.8,1068.1,251.2z"/>
				</g>
			</g>
			<g>
				<g>
					<path class="st44" d="M1051.4,242.4c0,0,4.4,1.7,6.5-2.6C1057.9,239.8,1053.6,238.6,1051.4,242.4z"/>
				</g>
			</g>
			<g>
				<g>
					<path class="st43" d="M1073.5,253.9c-0.2,0-0.4-0.2-0.4-0.4c-0.3-6.3,0.8-10.6,3.4-12.9c2.3-2,4.8-1.6,4.9-1.6
						c0.2,0,0.4,0.3,0.3,0.5c0,0.2-0.3,0.4-0.5,0.4c-0.1,0-2.2-0.3-4.2,1.4c-2.3,2.1-3.4,6.3-3.1,12.2
						C1073.9,253.7,1073.7,253.9,1073.5,253.9L1073.5,253.9z"/>
				</g>
			</g>
			<g>
				<g>
					<path class="st27" d="M1073.8,256.9c-0.4,1.1-1.2,1.8-1.9,1.5c-0.7-0.2-1-1.3-0.7-2.4c0.4-1.1,1.2-1.8,1.9-1.5
						S1074.1,255.8,1073.8,256.9z"/>
				</g>
			</g>
			<g>
				<g>
					<path class="st44" d="M1073.3,253.2c0,0-1.6,4.6,2.8,6.6C1076.1,259.8,1077.3,255.3,1073.3,253.2z"/>
				</g>
			</g>
			<g>
				<g>
					<path class="st44" d="M1062.3,234.4c0,0,4.8-2.2,2.9-7.1C1065.2,227.2,1060.9,229.7,1062.3,234.4z"/>
				</g>
			</g>
			<g>
				<g>
					<path class="st44" d="M1072.7,228.5c0,0-1.1,4.7,3.5,6.2C1076.2,234.7,1076.9,230.1,1072.7,228.5z"/>
				</g>
			</g>
			<g>
				<g>
					<path class="st44" d="M1054.9,229.2c0,0-1.1,4.7,3.5,6.2C1058.5,235.4,1059.1,230.8,1054.9,229.2z"/>
				</g>
			</g>
		</g>
	</g>
	<g>
		<g>
			<g>
				<rect x="1060.7" y="171.4" class="st36" width="323.2" height="19.6"/>
			</g>
		</g>
	</g>
	<g>
		<g>
			<g>
				<g>
					<path class="st44" d="M1165.9,138.4c0,9-8.4,17.7-16.1,17.7s-14.9-8.7-14.9-17.7s7.2-14.8,14.9-14.8
						C1157.5,123.6,1165.9,129.4,1165.9,138.4z"/>
				</g>
			</g>
		</g>
	</g>
	<g>
		<g>
			<g>
				<g>
					
						<ellipse transform="matrix(0.8897 -0.4566 0.4566 0.8897 60.1984 525.9818)" class="st44" cx="1118.5" cy="138.4" rx="14.8" ry="14.8"/>
				</g>
			</g>
		</g>
	</g>
	<g>
		<g>
			<g>
				<g>
					<path class="st38" d="M1192.4,123.2c-7,0-13,4.9-14.9,11.7c-2.9-2.4-6.6-3.9-10.7-3.9c-7.5,0-13.8,4.9-16.3,11.9
						c-2.5-6.9-8.8-11.9-16.3-11.9c-7,0-13.1,4.4-15.8,10.7c-2.4-7.1-8.8-12.2-16.4-12.2c-9.6,0-17.4,8.2-17.4,18.3
						s7.8,18.3,17.4,18.3c7,0,13.1-4.4,15.8-10.7c2.4,7.1,8.8,12.2,16.4,12.2c7.5,0,13.8-4.9,16.3-11.9c2.5,6.9,8.8,11.9,16.3,11.9
						c8.4,0,15.3-6.2,17-14.5c2.4,1.7,5.4,2.7,8.5,2.7c8.6,0,15.5-7.3,15.5-16.3C1207.9,130.5,1201,123.2,1192.4,123.2z"/>
				</g>
			</g>
		</g>
	</g>
	<g>
		<g>
			<g>
				<g>
					<rect x="1079.1" y="147.1" class="st36" width="134.4" height="26"/>
				</g>
			</g>
		</g>
	</g>
	<g>
		<g>
			<g>
				<g>
					<path class="st44" d="M1142,141.9c-0.7,1.7-2.3,2.7-3.4,2.2s-1.5-2.3-0.7-4c0.7-1.7,2.3-2.7,3.4-2.2S1142.8,140.2,1142,141.9z"
						/>
				</g>
			</g>
		</g>
	</g>
	<g>
		<g>
			<g>
				<g>
					<path class="st44" d="M1169.2,138.8c-0.1,1.3-0.8,2.4-1.7,2.3c-0.9,0-1.6-1.1-1.5-2.5c0.1-1.3,0.8-2.4,1.7-2.3
						S1169.3,137.4,1169.2,138.8z"/>
				</g>
			</g>
		</g>
	</g>
	<g>
		<g>
			<g>
				<g>
					<path class="st44" d="M1203.8,139.5c-0.7,1.7-2.3,2.7-3.4,2.2s-1.5-2.3-0.7-4c0.7-1.7,2.3-2.7,3.4-2.2
						C1204.2,136,1204.5,137.8,1203.8,139.5z"/>
				</g>
			</g>
		</g>
	</g>
	<g>
		<g>
			<g>
				<g>
					<path class="st44" d="M1110.4,138.4c0,1.8-1,3.3-2.2,3.3s-2.2-1.5-2.2-3.3s1-3.3,2.2-3.3S1110.4,136.6,1110.4,138.4z"/>
				</g>
			</g>
		</g>
	</g>
	<g>
		<g>
			<g>
				<g>
					<path class="st38" d="M1146.6,129.3c0.3,1.2-0.1,2.3-0.9,2.5s-1.7-0.6-2-1.7c-0.3-1.2,0.1-2.3,0.9-2.5
						C1145.4,127.3,1146.3,128.1,1146.6,129.3z"/>
				</g>
			</g>
		</g>
	</g>
	<g>
		<g>
			<g>
				<g>
					<path class="st44" d="M1097.5,140c0,1.5-0.9,2.8-2.2,2.9c-1.2,0-2.3-1.2-2.3-2.7s0.9-2.8,2.2-2.9
						C1096.4,137.3,1097.4,138.5,1097.5,140z"/>
				</g>
			</g>
		</g>
	</g>
	<g>
		<g>
			<g>
				<g>
					<g>
						<path class="st15" d="M1175.9,136.8c1.5,1.5,1.5,3.9,0,5.4s-3.9,1.5-5.4,0s-1.5-3.9,0-5.4S1174.4,135.3,1175.9,136.8z"/>
					</g>
				</g>
			</g>
		</g>
	</g>
	<g>
		<g>
			<g>
				<g>
					<g>
						<ellipse class="st39" cx="1173.2" cy="139.5" rx="1.6" ry="1.5"/>
					</g>
				</g>
			</g>
		</g>
	</g>
	<g>
		<g>
			<g>
				<g>
					<g>
						<path class="st15" d="M1139.2,140.5c1,1,1,2.6,0,3.5c-1,1-2.6,1-3.5,0c-1-1-1-2.6,0-3.5
							C1136.7,139.5,1138.2,139.5,1139.2,140.5z"/>
					</g>
				</g>
			</g>
		</g>
	</g>
	<g>
		<g>
			<g>
				<g>
					<g>
						<path class="st39" d="M1138.5,142.3c0,0.5-0.5,1-1.1,1s-1.1-0.4-1.1-1c0-0.5,0.5-1,1.1-1S1138.5,141.8,1138.5,142.3z"/>
					</g>
				</g>
			</g>
		</g>
	</g>
	<g>
		<g>
			<g>
				<g>
					<g>
						<path class="st15" d="M1153.1,127.9c1.5,1,1.5,2.7,0,3.7s-3.9,1-5.4,0s-1.5-2.7,0-3.7C1149.2,126.8,1151.6,126.8,1153.1,127.9
							z"/>
					</g>
				</g>
			</g>
		</g>
	</g>
	<g>
		<g>
			<g>
				<g>
					<g>
						<path class="st39" d="M1152,129.7c0,0.6-0.7,1-1.6,1s-1.6-0.4-1.6-1s0.7-1,1.6-1S1152,129.2,1152,129.7z"/>
					</g>
				</g>
			</g>
		</g>
	</g>
	<g>
		<g>
			<g>
				<g>
					<g>
						<ellipse class="st15" cx="1192.4" cy="129.7" rx="3.8" ry="2.9"/>
					</g>
				</g>
			</g>
		</g>
	</g>
	<g>
		<g>
			<g>
				<g>
					<g>
						<path class="st39" d="M1194,129.7c0,0.6-0.7,1.1-1.6,1.1s-1.6-0.5-1.6-1.1s0.7-1.1,1.6-1.1
							C1193.3,128.6,1194,129.1,1194,129.7z"/>
					</g>
				</g>
			</g>
		</g>
	</g>
	<g>
		<g>
			<g>
				<g>
					<g>
						<ellipse class="st15" cx="1129.3" cy="138.4" rx="3.8" ry="2.9"/>
					</g>
				</g>
			</g>
		</g>
	</g>
	<g>
		<g>
			<g>
				<g>
					<g>
						<path class="st39" d="M1130.9,138.4c0,0.6-0.7,1.1-1.6,1.1s-1.6-0.5-1.6-1.1s0.7-1.1,1.6-1.1
							C1130.2,137.3,1130.9,137.8,1130.9,138.4z"/>
					</g>
				</g>
			</g>
		</g>
	</g>
	<g>
		<g>
			<g>
				<path class="st27" d="M1178.9,123.8c-0.5-0.5-1.3-0.3-2.1,0.3c0-1.2-0.4-2.1-1.1-2.3c-0.7-0.1-1.4,0.6-2,1.7
					c-0.5-0.9-1.2-1.4-1.8-1.2c-0.9,0.3-1.4,2.1-1,4c0.4,1.7,1.5,3,2.9,3.5c1.8,0.6,3.7-0.7,4.7-2.4
					C1179,126.5,1179.7,124.6,1178.9,123.8z"/>
			</g>
		</g>
	</g>
	<g>
		<g>
			<g>
				<g>
					<path class="st44" d="M1314.6,138.4c0,9-8.4,17.7-16.1,17.7s-14.9-8.7-14.9-17.7s7.2-14.8,14.9-14.8
						C1306.2,123.6,1314.6,129.4,1314.6,138.4z"/>
				</g>
			</g>
		</g>
	</g>
	<g>
		<g>
			<g>
				<g>
					
						<ellipse transform="matrix(0.8897 -0.4566 0.4566 0.8897 76.5887 593.8867)" class="st44" cx="1267.3" cy="138.5" rx="14.8" ry="14.8"/>
				</g>
			</g>
		</g>
	</g>
	<g>
		<g>
			<g>
				<g>
					<path class="st38" d="M1341.2,123.2c-7,0-13,4.9-14.9,11.7c-2.9-2.4-6.6-3.9-10.7-3.9c-7.5,0-13.8,4.9-16.3,11.9
						c-2.5-6.9-8.8-11.9-16.3-11.9c-7,0-13.1,4.4-15.8,10.7c-2.4-7.1-8.8-12.2-16.4-12.2c-9.6,0-17.4,8.2-17.4,18.3
						s7.8,18.3,17.4,18.3c7,0,13.1-4.4,15.8-10.7c2.4,7.1,8.8,12.2,16.4,12.2c7.5,0,13.8-4.9,16.3-11.9c2.5,6.9,8.8,11.9,16.3,11.9
						c8.4,0,15.3-6.2,17-14.5c2.4,1.7,5.4,2.7,8.5,2.7c8.6,0,15.5-7.3,15.5-16.3C1356.7,130.5,1349.7,123.2,1341.2,123.2z"/>
				</g>
			</g>
		</g>
	</g>
	<g>
		<g>
			<g>
				<g>
					<rect x="1227.9" y="147.1" class="st36" width="134.4" height="26"/>
				</g>
			</g>
		</g>
	</g>
	<g>
		<g>
			<g>
				<g>
					<path class="st44" d="M1290.8,141.9c-0.7,1.7-2.3,2.7-3.4,2.2s-1.5-2.3-0.7-4c0.7-1.7,2.3-2.7,3.4-2.2
						C1291.2,138.4,1291.5,140.2,1290.8,141.9z"/>
				</g>
			</g>
		</g>
	</g>
	<g>
		<g>
			<g>
				<g>
					<path class="st44" d="M1318,138.8c-0.1,1.3-0.8,2.4-1.7,2.3c-0.9,0-1.6-1.1-1.5-2.5c0.1-1.3,0.8-2.4,1.7-2.3
						S1318.1,137.4,1318,138.8z"/>
				</g>
			</g>
		</g>
	</g>
	<g>
		<g>
			<g>
				<g>
					<path class="st44" d="M1352.5,139.5c-0.7,1.7-2.3,2.7-3.4,2.2s-1.5-2.3-0.7-4c0.7-1.7,2.3-2.7,3.4-2.2
						C1353,136,1353.3,137.8,1352.5,139.5z"/>
				</g>
			</g>
		</g>
	</g>
	<g>
		<g>
			<g>
				<g>
					<path class="st44" d="M1259.2,138.4c0,1.8-1,3.3-2.2,3.3s-2.2-1.5-2.2-3.3s1-3.3,2.2-3.3
						C1258.2,135.1,1259.2,136.6,1259.2,138.4z"/>
				</g>
			</g>
		</g>
	</g>
	<g>
		<g>
			<g>
				<g>
					<path class="st38" d="M1295.4,129.3c0.3,1.2-0.1,2.3-0.9,2.5s-1.7-0.6-2-1.7c-0.3-1.2,0.1-2.3,0.9-2.5
						C1294.2,127.3,1295.1,128.1,1295.4,129.3z"/>
				</g>
			</g>
		</g>
	</g>
	<g>
		<g>
			<g>
				<g>
					<path class="st44" d="M1246.2,140c0,1.5-0.9,2.8-2.2,2.9c-1.2,0-2.3-1.2-2.3-2.7s0.9-2.8,2.2-2.9
						C1245.1,137.3,1246.2,138.5,1246.2,140z"/>
				</g>
			</g>
		</g>
	</g>
	<g>
		<g>
			<g>
				<g>
					<g>
						<path class="st15" d="M1324.6,136.8c1.5,1.5,1.5,3.9,0,5.4s-3.9,1.5-5.4,0s-1.5-3.9,0-5.4S1323.1,135.3,1324.6,136.8z"/>
					</g>
				</g>
			</g>
		</g>
	</g>
	<g>
		<g>
			<g>
				<g>
					<g>
						<ellipse class="st39" cx="1321.9" cy="139.5" rx="1.6" ry="1.5"/>
					</g>
				</g>
			</g>
		</g>
	</g>
	<g>
		<g>
			<g>
				<g>
					<g>
						<path class="st15" d="M1288,140.5c1,1,1,2.6,0,3.5c-1,1-2.6,1-3.5,0c-1-1-1-2.6,0-3.5C1285.4,139.5,1287,139.5,1288,140.5z"/>
					</g>
				</g>
			</g>
		</g>
	</g>
	<g>
		<g>
			<g>
				<g>
					<g>
						<path class="st39" d="M1287.3,142.3c0,0.5-0.5,1-1.1,1s-1.1-0.4-1.1-1c0-0.5,0.5-1,1.1-1S1287.3,141.8,1287.3,142.3z"/>
					</g>
				</g>
			</g>
		</g>
	</g>
	<g>
		<g>
			<g>
				<g>
					<g>
						<path class="st15" d="M1301.8,127.9c1.5,1,1.5,2.7,0,3.7s-3.9,1-5.4,0s-1.5-2.7,0-3.7C1297.9,126.8,1300.3,126.8,1301.8,127.9
							z"/>
					</g>
				</g>
			</g>
		</g>
	</g>
	<g>
		<g>
			<g>
				<g>
					<g>
						<path class="st39" d="M1300.8,129.7c0,0.6-0.7,1-1.6,1s-1.6-0.4-1.6-1s0.7-1,1.6-1C1300,128.7,1300.8,129.2,1300.8,129.7z"/>
					</g>
				</g>
			</g>
		</g>
	</g>
	<g>
		<g>
			<g>
				<g>
					<g>
						<ellipse class="st15" cx="1341.2" cy="129.7" rx="3.8" ry="2.9"/>
					</g>
				</g>
			</g>
		</g>
	</g>
	<g>
		<g>
			<g>
				<g>
					<g>
						<path class="st39" d="M1342.8,129.7c0,0.6-0.7,1.1-1.6,1.1s-1.6-0.5-1.6-1.1s0.7-1.1,1.6-1.1S1342.8,129.1,1342.8,129.7z"/>
					</g>
				</g>
			</g>
		</g>
	</g>
	<g>
		<g>
			<g>
				<g>
					<g>
						<ellipse class="st15" cx="1278.1" cy="138.4" rx="3.8" ry="2.9"/>
					</g>
				</g>
			</g>
		</g>
	</g>
	<g>
		<g>
			<g>
				<g>
					<g>
						<path class="st39" d="M1279.7,138.4c0,0.6-0.7,1.1-1.6,1.1s-1.6-0.5-1.6-1.1s0.7-1.1,1.6-1.1S1279.7,137.8,1279.7,138.4z"/>
					</g>
				</g>
			</g>
		</g>
	</g>
	<g>
		<g>
			<g>
				<path class="st27" d="M1327.6,123.8c-0.5-0.5-1.3-0.3-2.1,0.3c0-1.2-0.4-2.1-1.1-2.3c-0.7-0.1-1.4,0.6-2,1.7
					c-0.5-0.9-1.2-1.4-1.8-1.2c-0.9,0.3-1.4,2.1-1,4c0.4,1.7,1.5,3,2.9,3.5c1.8,0.6,3.7-0.7,4.7-2.4
					C1327.8,126.5,1328.5,124.6,1327.6,123.8z"/>
			</g>
		</g>
	</g>
	<g>
		<g>
			<g>
				<g>
					<g>
						<g>
							<g>
								<g>
									<path class="st43" d="M1367,390.7c-0.5,0-1-0.7-1-1.5v-54.5c0-0.8,0.4-1.5,1-1.5c0.5,0,1,0.7,1,1.5v54.5
										C1368,390,1367.5,390.7,1367,390.7z"/>
								</g>
							</g>
						</g>
					</g>
				</g>
			</g>
		</g>
		<path class="st45" d="M1368.2,364.3c0,0,14.4,0.2,15.6-14.1C1383.8,350.2,1370.3,351.2,1368.2,364.3z"/>
		<path class="st45" d="M1355,361.7c0,0-0.5,12,11.5,13.4C1366.5,375.1,1365.9,363.7,1355,361.7z"/>
		<path class="st45" d="M1353.1,340.1c0,0-0.5,13.8,13.2,15.3C1366.3,355.4,1365.7,342.4,1353.1,340.1z"/>
		<path class="st45" d="M1367,342.2c0,0,7.1-8.9-1.3-16.5C1365.7,325.7,1359.8,334.6,1367,342.2z"/>
		<path class="st45" d="M1367.2,345.3c0,0,11.3-1.2,10.9-12.5C1378.1,332.8,1367.6,334.8,1367.2,345.3z"/>
		<g id="XMLID_162_">
			<g id="XMLID_163_">
				<g>
					<g>
						<g>
							<g>
								<g>
									<rect x="1357.1" y="385.4" class="st39" width="21.3" height="24"/>
								</g>
							</g>
						</g>
					</g>
				</g>
			</g>
		</g>
		<g id="XMLID_160_">
			<g id="XMLID_161_">
				<g>
					<g>
						<g>
							<g>
								<g>
									<rect x="1354.5" y="381.1" class="st42" width="26.5" height="4.3"/>
								</g>
							</g>
						</g>
					</g>
				</g>
			</g>
		</g>
	</g>
	<g>
		<path class="st46" d="M1195.6,227.1c0.3-0.8,0.6-1.8,0.8-2.8c0.2-1,0.3-1.9,0.3-2.6c0-0.4-0.1-0.7-0.3-0.7c-0.2,0-0.5,0.3-1.1,0.8
			c-0.8,0.8-1.4,1.8-2,2.8c-0.6,1.1-1.1,2.2-1.4,3.3s-0.5,2.2-0.5,3.3c0,0.8,0.1,1.4,0.3,1.7c0.2,0.3,0.5,0.5,1,0.5
			c0.4,0,1-0.1,1.6-0.4c1.5-0.6,3-1.4,4.6-2.5c0.7-0.5,1.2-0.7,1.4-0.7c0.3,0,0.4,0.1,0.4,0.4l0,0c0,0.4-0.2,0.8-0.4,1.3
			c-0.4,0.9-0.8,1.5-1.1,1.8c-0.5,0.5-1.3,0.9-2.2,1.4c-0.9,0.5-1.9,0.8-2.9,1.1s-1.8,0.4-2.5,0.4c-0.8,0-1.5-0.1-2.2-0.4
			c-0.7-0.3-1.3-0.7-1.8-1.2s-0.9-1.1-1.2-1.8c-0.3-0.7-0.4-1.4-0.4-2.2c0-0.6,0.1-1.2,0.3-1.9c0.2-0.7,0.5-1.4,0.8-2.1
			c0.4-0.7,0.8-1.4,1.2-2.1c0.3-0.4,0.5-0.8,0.8-1.1c0.3-0.4,0.6-0.7,0.9-1s0.7-0.7,1.1-1s0.8-0.6,1.1-0.8c0.6-0.4,1.2-0.7,1.8-1
			c0.6-0.3,1.2-0.5,1.8-0.7c0.5-0.1,1-0.2,1.5-0.2c1.1,0,2,0.3,2.6,0.9c0.6,0.6,0.9,1.4,0.9,2.4c0,1.1-0.3,2.2-0.8,3.3
			c-0.5,1.2-1.2,2.2-2.1,3c-0.6,0.6-1.2,1.1-1.8,1.4c-0.6,0.4-1.1,0.5-1.6,0.5c-0.4,0-0.6-0.2-0.6-0.6c0-0.2,0.1-0.4,0.3-0.8
			C1194.9,228.7,1195.2,228,1195.6,227.1z M1190.7,237.7c-0.7,0-1.1-0.1-1.1-0.4c0-0.2,0.1-0.4,0.3-0.6s0.4-0.3,0.7-0.5
			c0.3-0.1,0.6-0.2,0.9-0.2c0.5,0,0.9,0.1,1.2,0.4c0.3,0.3,0.5,0.7,0.5,1.1c0,0.3-0.1,0.7-0.4,1c-0.3,0.4-0.6,0.7-1.1,0.9
			c-0.4,0.2-0.9,0.4-1.3,0.4c-0.2,0-0.5-0.1-0.6-0.2c-0.2-0.1-0.3-0.2-0.3-0.4c0-0.1,0.1-0.2,0.3-0.2
			C1190.2,239,1190.6,238.5,1190.7,237.7z"/>
		<path class="st46" d="M1203.9,236.3c-0.4,0-0.7-0.2-1-0.5s-0.5-0.7-0.7-1.1c-0.1-0.4-0.2-0.9-0.2-1.5c0-1.4,0.3-3,0.8-4.7
			s1.1-3,1.8-3.8c0.3-0.3,0.6-0.5,1.1-0.5s0.9,0.2,1.2,0.7c0.3,0.4,0.4,1,0.4,1.8c0,1.1-0.2,2.3-0.5,3.7s-0.7,2.9-1.3,4.5
			c-0.2,0.6-0.5,1-0.8,1.3C1204.5,236.3,1204.3,236.3,1203.9,236.3L1203.9,236.3z M1205.4,223.7c-0.8,0-1.2-0.5-1.2-1.4
			c0-0.5,0.1-1,0.3-1.6c0.2-0.6,0.5-1.1,0.8-1.4c0.2-0.2,0.3-0.3,0.5-0.3c0.2-0.1,0.4-0.1,0.6-0.1c0.4,0,0.7,0.1,0.9,0.3
			c0.2,0.2,0.3,0.5,0.3,1c0,0.6-0.1,1.2-0.3,1.7c-0.2,0.5-0.5,1-0.8,1.3C1206.2,223.5,1205.8,223.7,1205.4,223.7L1205.4,223.7z"/>
		<path class="st46" d="M1215.4,224.1c0.6,0,1.1,0.2,1.5,0.6c0.4,0.3,0.6,0.8,0.6,1.4c0,0.5-0.1,1-0.4,1.5s-0.7,0.9-1.1,1.3
			c-0.4,0.3-0.9,0.5-1.3,0.5c-0.3,0-0.4-0.1-0.4-0.3c0-0.1,0.1-0.2,0.2-0.4c0.3-0.6,0.5-1.2,0.5-1.9c0-0.4,0-0.5-0.1-0.5
			s-0.3,0.2-0.5,0.5s-0.4,0.7-0.6,1.1c-0.3,0.6-0.5,1.3-0.6,2.1c-0.2,0.7-0.3,1.3-0.3,1.9c0,0.6,0.1,1,0.3,1.3
			c0.2,0.3,0.4,0.5,0.7,0.5c0.3,0,0.7-0.2,1.1-0.5c0.5-0.3,0.9-0.7,1.4-1.1c0.2-0.2,0.3-0.3,0.5-0.3s0.3,0.1,0.3,0.3
			c0,1-0.4,2-1.2,2.8c-0.6,0.6-1.2,1-1.9,1.3c-0.7,0.3-1.4,0.5-1.9,0.5c-1,0-1.8-0.3-2.5-0.9c-0.7-0.6-1-1.4-1-2.4s0.2-2,0.6-3
			c0.4-1.1,1-2.1,1.7-3s1.6-1.7,2.5-2.4C1214.1,224.3,1214.7,224.1,1215.4,224.1L1215.4,224.1z M1210,237.7c-0.7,0-1.1-0.1-1.1-0.4
			c0-0.2,0.1-0.4,0.3-0.6s0.4-0.3,0.7-0.5c0.3-0.1,0.6-0.2,0.9-0.2c0.5,0,0.9,0.1,1.2,0.4c0.3,0.3,0.5,0.7,0.5,1.1
			c0,0.3-0.1,0.7-0.4,1c-0.3,0.4-0.6,0.7-1.1,0.9c-0.4,0.2-0.9,0.4-1.3,0.4c-0.2,0-0.5-0.1-0.6-0.2c-0.2-0.1-0.3-0.2-0.3-0.4
			c0-0.1,0.1-0.2,0.3-0.2C1209.6,239,1210,238.5,1210,237.7z"/>
		<path class="st46" d="M1222.8,232.7c0.1,0.5,0.4,0.8,1,0.8s1.4-0.4,2.5-1.1c0.6-0.4,1-0.6,1.2-0.6c0.3,0,0.5,0.1,0.7,0.2
			c0.2,0.1,0.3,0.3,0.3,0.4c0,0.2-0.1,0.3-0.4,0.6c-0.4,0.4-1,0.9-1.5,1.3c-0.6,0.4-1.1,0.8-1.7,1.1c-0.5,0.3-1.1,0.5-1.6,0.7
			s-1,0.2-1.4,0.2c-1.1,0-1.9-0.3-2.5-0.9c-0.6-0.6-0.9-1.4-0.9-2.4c0-0.8,0.2-1.6,0.5-2.6s0.8-1.9,1.3-2.7c0.7-1,1.5-1.8,2.4-2.5
			c1.2-0.8,2.3-1.2,3.4-1.2c0.8,0,1.4,0.2,1.9,0.7c0.4,0.5,0.7,1.2,0.7,2.1c0,0.7-0.2,1.4-0.5,2.1c-0.4,0.7-0.9,1.4-1.6,2.1
			c-0.6,0.6-1.1,1-1.7,1.3s-1,0.5-1.4,0.5C1223.2,232.8,1223,232.8,1222.8,232.7z M1222.8,232.3c0.4-0.3,0.7-0.5,0.9-0.8
			c0.4-0.5,0.8-1.2,1-1.9c0.2-0.5,0.3-1,0.5-1.5c0.1-0.6,0.2-1.1,0.2-1.6s-0.1-0.7-0.3-0.7c-0.3,0-0.7,0.6-1.2,1.8
			c-0.3,0.7-0.6,1.4-0.8,2.1c-0.2,0.7-0.3,1.3-0.3,1.8C1222.7,231.7,1222.7,232,1222.8,232.3z"/>
		<path class="st46" d="M1241.5,238.5c-1.2,1.5-2.1,2.3-2.7,2.3c-0.4,0-0.9-0.2-1.4-0.5s-1-0.8-1.4-1.4c-0.4-0.6-0.8-1.2-1-1.9
			c-0.3-0.7-0.4-1.3-0.4-2c0-0.4,0.1-0.6,0.2-0.7c0.1-0.1,0.2-0.1,0.3-0.3c1.4-0.9,2.1-1.7,2.1-2.5c0-0.4-0.2-0.6-0.5-0.6
			c-0.4,0-0.9,0.4-1.5,1.1c-0.6,0.7-1.2,1.7-1.7,2.7c-0.3,0.7-0.5,1.1-0.8,1.3c-0.2,0.2-0.5,0.3-0.9,0.3s-0.8-0.1-1.2-0.4
			c-0.3-0.2-0.6-0.6-0.8-1.1c-0.2-0.5-0.3-1-0.3-1.6c0-0.9,0.1-1.9,0.3-3c0.2-1.1,0.5-2.2,1-3.2c0.4-1.1,0.9-2.1,1.5-3.2
			c0.6-1,1.2-1.9,1.8-2.7c1.2-1.5,2.4-2.3,3.5-2.3c0.6,0,1.1,0.1,1.5,0.4c0.4,0.3,0.8,0.6,1,1.1s0.4,1,0.4,1.7
			c0,0.8-0.2,1.6-0.6,2.3c-0.4,0.8-0.9,1.4-1.5,1.9s-1.2,0.7-1.9,0.7c-0.3,0-0.4-0.1-0.4-0.3c0-0.1,0.1-0.3,0.2-0.6
			c0.7-1.5,1.1-3.1,1.1-5c0-0.5-0.1-0.7-0.2-0.7s-0.2,0.1-0.4,0.4c-0.2,0.2-0.3,0.5-0.5,0.9c-0.9,2.1-1.6,4.5-2,7.2
			c0,0.1-0.1,0.3-0.1,0.6c0,0.2-0.1,0.5-0.1,0.8l0.1,0.1c0.3-0.5,0.6-0.9,0.9-1.1c0.2-0.2,0.5-0.5,0.9-0.8c1.1-0.9,2.2-1.3,3.2-1.3
			c0.5,0,0.9,0.1,1.2,0.4c0.3,0.3,0.5,0.7,0.5,1.1c0,1.1-0.4,2.3-1.1,3.5c-0.2,0.4-0.4,0.7-0.7,1c-0.3,0.3-0.6,0.8-1.1,1.3
			c0.3,0.5,0.6,1,1,1.5c0.3,0.5,0.8,0.9,1.3,1.4C1240.9,237.8,1241.3,238.1,1241.5,238.5z"/>
		<path class="st46" d="M1249.3,224.1c0.6,0,1.1,0.2,1.5,0.6c0.4,0.3,0.6,0.8,0.6,1.4c0,0.5-0.1,1-0.4,1.5s-0.7,0.9-1.1,1.3
			c-0.4,0.3-0.9,0.5-1.3,0.5c-0.3,0-0.4-0.1-0.4-0.3c0-0.1,0.1-0.2,0.2-0.4c0.3-0.6,0.5-1.2,0.5-1.9c0-0.4,0-0.5-0.1-0.5
			s-0.3,0.2-0.5,0.5s-0.4,0.7-0.6,1.1c-0.3,0.6-0.5,1.3-0.6,2.1c-0.2,0.7-0.3,1.3-0.3,1.9c0,0.6,0.1,1,0.3,1.3
			c0.2,0.3,0.4,0.5,0.7,0.5c0.3,0,0.7-0.2,1.1-0.5c0.5-0.3,0.9-0.7,1.4-1.1c0.2-0.2,0.3-0.3,0.5-0.3s0.3,0.1,0.3,0.3
			c0,1-0.4,2-1.2,2.8c-0.6,0.6-1.2,1-1.9,1.3c-0.7,0.3-1.4,0.5-1.9,0.5c-1,0-1.8-0.3-2.5-0.9c-0.7-0.6-1-1.4-1-2.4s0.2-2,0.6-3
			c0.4-1.1,1-2.1,1.7-3s1.6-1.7,2.5-2.4C1247.9,224.3,1248.6,224.1,1249.3,224.1L1249.3,224.1z M1243.9,237.7
			c-0.7,0-1.1-0.1-1.1-0.4c0-0.2,0.1-0.4,0.3-0.6s0.4-0.3,0.7-0.5c0.3-0.1,0.6-0.2,0.9-0.2c0.5,0,0.9,0.1,1.2,0.4
			c0.3,0.3,0.5,0.7,0.5,1.1c0,0.3-0.1,0.7-0.4,1c-0.3,0.4-0.6,0.7-1.1,0.9c-0.4,0.2-0.9,0.4-1.3,0.4c-0.2,0-0.5-0.1-0.6-0.2
			c-0.2-0.1-0.3-0.2-0.3-0.4c0-0.1,0.1-0.2,0.3-0.2C1243.4,239,1243.8,238.5,1243.9,237.7z"/>
		<path class="st46" d="M1254.2,236.3c-0.4,0-0.7-0.2-1-0.5s-0.5-0.7-0.7-1.1c-0.1-0.4-0.2-0.9-0.2-1.5c0-1.4,0.3-3,0.8-4.7
			s1.1-3,1.8-3.8c0.3-0.3,0.6-0.5,1.1-0.5s0.9,0.2,1.2,0.7c0.3,0.4,0.4,1,0.4,1.8c0,1.1-0.2,2.3-0.5,3.7s-0.7,2.9-1.3,4.5
			c-0.2,0.6-0.5,1-0.8,1.3C1254.7,236.3,1254.5,236.3,1254.2,236.3L1254.2,236.3z M1255.7,223.7c-0.8,0-1.2-0.5-1.2-1.4
			c0-0.5,0.1-1,0.3-1.6c0.2-0.6,0.5-1.1,0.8-1.4c0.2-0.2,0.3-0.3,0.5-0.3c0.2-0.1,0.4-0.1,0.6-0.1c0.4,0,0.7,0.1,0.9,0.3
			c0.2,0.2,0.3,0.5,0.3,1c0,0.6-0.1,1.2-0.3,1.7c-0.2,0.5-0.5,1-0.8,1.3C1256.4,223.5,1256.1,223.7,1255.7,223.7L1255.7,223.7z"/>
	</g>
	<g>
		<polygon class="st36" points="1251.7,270.4 1251.7,363.3 1100.3,363.3 1100.3,270.4 1094.9,270.4 1094.9,368.6 1257,368.6 
			1257,270.4 		"/>
		<g>
			<g>
				<path class="st15" d="M1094.9,269.4v10.2c0,0,0.3,8.4,9,8.4s9-8.4,9-8.4v-10.2H1094.9z"/>
			</g>
		</g>
		<g>
			<g>
				<path class="st36" d="M1112.9,269.4v10.2c0,0,0.3,8.4,9,8.4s9-8.4,9-8.4v-10.2H1112.9z"/>
			</g>
		</g>
		<g>
			<g>
				<path class="st15" d="M1130.9,269.4v10.2c0,0,0.3,8.4,9,8.4s9-8.4,9-8.4v-10.2H1130.9z"/>
			</g>
		</g>
		<g>
			<g>
				<path class="st15" d="M1239,269.4v10.2c0,0,0.3,8.4,9,8.4s9-8.4,9-8.4v-10.2H1239z"/>
			</g>
		</g>
		<g>
			<g>
				<path class="st36" d="M1148.9,269.4v10.2c0,0,0.3,8.4,9,8.4s9-8.4,9-8.4v-10.2H1148.9z"/>
			</g>
		</g>
		<g>
			<g>
				<path class="st15" d="M1166.9,269.4v10.2c0,0,0.3,8.4,9,8.4s9-8.4,9-8.4v-10.2H1166.9z"/>
			</g>
		</g>
		<g>
			<g>
				<path class="st36" d="M1185,269.4v10.2c0,0,0.3,8.4,9,8.4s9-8.4,9-8.4v-10.2H1185z"/>
			</g>
		</g>
		<g>
			<g>
				<path class="st15" d="M1203,269.4v10.2c0,0,0.3,8.4,9,8.4s9-8.4,9-8.4v-10.2H1203z"/>
			</g>
		</g>
		<g>
			<g>
				<path class="st36" d="M1221,269.4v10.2c0,0,0.3,8.4,9,8.4s9-8.4,9-8.4v-10.2H1221z"/>
			</g>
		</g>
		<path class="st36" d="M1251.5,263.8h-151.2c-3,0-5.5,2.4-5.5,5.5v1.1H1257v-1.1C1257,266.3,1254.5,263.8,1251.5,263.8z"/>
	</g>
	<g>
		<g>
			<g>
				<g>
					<path class="st47" d="M1234.5,364.8c0-0.3,0-0.5,0-0.8c0-5.9-4.6-10.8-10.5-11.2c-1.8-3.9-5.8-6.6-10.4-6.6
						c-5.2,0-9.6,3.4-11,8.1c-0.1,0-0.1,0-0.2,0c-5.5,0-9.9,4.4-9.9,9.8c0,0.2,0,0.4,0,0.6h42V364.8z"/>
				</g>
			</g>
		</g>
		<g>
			<g>
				<path class="st15" d="M1216.5,350.9c1.1,0.8,1.1,2.2,0,3s-2.8,0.8-3.9,0s-1.1-2.2,0-3S1215.5,350.1,1216.5,350.9z"/>
			</g>
		</g>
		<g>
			<g>
				<path class="st39" d="M1215.8,352.4c0,0.4-0.5,0.8-1.2,0.8s-1.2-0.4-1.2-0.8s0.5-0.8,1.2-0.8
					C1215.2,351.6,1215.8,352,1215.8,352.4z"/>
			</g>
		</g>
		<g>
			<path class="st47" d="M1214.6,368.3c0,9-8.4,17.7-16.1,17.7s-14.9-8.7-14.9-17.7s7.2-14.8,14.9-14.8
				C1206.2,353.4,1214.6,359.3,1214.6,368.3z"/>
		</g>
		<g>
			<g>
				<g>
					<g>
						<g>
							<g>
								
									<ellipse transform="matrix(0.9226 -0.3857 0.3857 0.9226 -51.7573 478.6935)" class="st47" cx="1167.2" cy="368.3" rx="14.8" ry="14.8"/>
							</g>
						</g>
					</g>
				</g>
			</g>
		</g>
		<path class="st45" d="M1241.1,353.1c-7,0-13,4.9-14.9,11.7c-2.9-2.4-6.6-3.9-10.7-3.9c-7.5,0-13.8,4.9-16.3,11.9
			c-2.5-6.9-8.8-11.9-16.3-11.9c-7,0-13.1,4.4-15.8,10.7c-2.4-7.1-8.8-12.2-16.4-12.2c-9.6,0-17.4,8.2-17.4,18.3
			c0,10.1,7.8,18.3,17.4,18.3c7,0,13.1-4.4,15.8-10.7c2.4,7.1,8.8,12.2,16.4,12.2c7.5,0,13.8-4.9,16.3-11.9
			c2.5,6.9,8.8,11.9,16.3,11.9c8.4,0,15.3-6.2,17-14.5c2.4,1.7,5.4,2.7,8.5,2.7c8.6,0,15.5-7.3,15.5-16.3
			C1256.6,360.4,1249.7,353.1,1241.1,353.1z"/>
		<g>
			<g>
				<g>
					<g>
						<g>
							<g>
								<rect x="1127.8" y="377" class="st48" width="134.4" height="35.5"/>
							</g>
						</g>
					</g>
				</g>
			</g>
		</g>
		<g>
			<g>
				<g>
					<g>
						<g>
							<g>
								<g>
									<path class="st47" d="M1190.7,371.8c-0.7,1.7-2.3,2.7-3.4,2.2s-1.5-2.3-0.7-4c0.7-1.7,2.3-2.7,3.4-2.2
										S1191.5,370.1,1190.7,371.8z"/>
								</g>
							</g>
						</g>
					</g>
				</g>
			</g>
		</g>
		<g>
			<g>
				<g>
					<g>
						<g>
							<g>
								<g>
									<path class="st47" d="M1218,368.7c-0.1,1.3-0.8,2.4-1.7,2.3c-0.9,0-1.6-1.1-1.5-2.5c0.1-1.3,0.8-2.4,1.7-2.3
										C1217.3,366.2,1218,367.3,1218,368.7z"/>
								</g>
							</g>
						</g>
					</g>
				</g>
			</g>
		</g>
		<g>
			<g>
				<g>
					<g>
						<g>
							<g>
								<g>
									<path class="st47" d="M1252.5,369.4c-0.7,1.7-2.3,2.7-3.4,2.2s-1.5-2.3-0.7-4c0.7-1.7,2.3-2.7,3.4-2.2
										S1253.2,367.7,1252.5,369.4z"/>
								</g>
							</g>
						</g>
					</g>
				</g>
			</g>
		</g>
		<g>
			<g>
				<g>
					<g>
						<g>
							<g>
								<g>
									<path class="st47" d="M1159.1,368.3c0,1.8-1,3.3-2.2,3.3s-2.2-1.5-2.2-3.3s1-3.3,2.2-3.3
										C1158.1,364.9,1159.1,366.4,1159.1,368.3z"/>
								</g>
							</g>
						</g>
					</g>
				</g>
			</g>
		</g>
		<g>
			<g>
				<g>
					<g>
						<g>
							<g>
								<g>
									<path class="st45" d="M1195.3,359.2c0.3,1.2-0.1,2.3-0.9,2.5s-1.7-0.6-2-1.7c-0.3-1.2,0.1-2.3,0.9-2.5
										C1194.1,357.2,1195,358,1195.3,359.2z"/>
								</g>
							</g>
						</g>
					</g>
				</g>
			</g>
		</g>
		<g>
			<g>
				<g>
					<g>
						<g>
							<g>
								<g>
									<path class="st45" d="M1172.1,360c-0.4,1.2-1.3,1.9-2.1,1.6c-0.8-0.3-1.1-1.4-0.7-2.6s1.3-1.9,2.1-1.6
										C1172.2,357.7,1172.5,358.9,1172.1,360z"/>
								</g>
							</g>
						</g>
					</g>
				</g>
			</g>
		</g>
		<g>
			<g>
				<g>
					<g>
						<g>
							<g>
								<g>
									<path class="st47" d="M1146.2,369.9c0,1.5-0.9,2.8-2.2,2.9c-1.2,0-2.3-1.2-2.3-2.7s0.9-2.8,2.2-2.9
										C1145.1,367.2,1146.1,368.4,1146.2,369.9z"/>
								</g>
							</g>
						</g>
					</g>
				</g>
			</g>
		</g>
		<g>
			<path class="st49" d="M1141.1,390.2l2.7-2.9c0.7-0.7,1.3-1.2,1.7-1.6c0.4-0.3,0.9-0.7,1.5-1.1c1-0.7,2-1,2.8-1c0.6,0,1,0.2,1,0.7
				c0,0.4-0.1,0.7-0.3,1.1c-0.2,0.4-0.4,0.7-0.7,1c-0.5,0.5-1.6,1.3-3.1,2.2c-1.1,0.7-2,1.3-2.7,1.8c0.1,0.6,0.2,1.2,0.3,1.7
				c0.1,0.5,0.3,1,0.4,1.4c0.2,0.4,0.4,0.9,0.7,1.4c0.3,0.6,0.7,1.2,1,1.7c0.9,1.3,1.9,2.1,2.8,2.5c0.3,0.1,0.4,0.3,0.4,0.4
				c0,0.2-0.2,0.5-0.5,0.7c-0.4,0.4-0.9,0.7-1.5,1c-0.6,0.2-1.2,0.3-1.7,0.3c-1.1,0-2-0.3-2.9-0.8c-0.8-0.6-1.5-1.3-1.9-2.4
				c-0.5-1.1-0.9-2.5-1-4.2c0-0.3-0.1-0.6-0.1-0.9h-0.1c-0.4,0.5-0.6,0.9-0.8,1.2c-0.2,0.3-0.4,0.9-0.7,1.7
				c-0.4,1.1-0.8,1.9-1.1,2.4c-0.3,0.6-0.7,1-1.1,1.4c-0.4,0.3-0.8,0.6-1.3,0.9c-0.5,0.2-0.9,0.4-1.2,0.4c-0.2,0-0.4-0.1-0.6-0.3
				s-0.2-0.4-0.2-0.6s0-0.3,0-0.4c0.4-1.6,0.9-3.3,1.3-5c0.5-1.7,1-3.3,1.5-4.8s1-2.8,1.4-3.8s0.8-1.7,1-2c0.3-0.3,0.7-0.6,1.2-0.8
				c0.5-0.2,1.1-0.3,1.7-0.3c0.5,0,0.9,0.1,1.2,0.2c0.2,0.1,0.3,0.4,0.3,0.7c0,0.5-0.5,2-1.4,4.5c-0.1,0.2-0.2,0.5-0.3,0.9
				c-0.1,0.4-0.2,0.7-0.3,0.9l0.1,0.1L1141.1,390.2z"/>
			<path class="st49" d="M1160.6,397.6L1160.6,397.6L1160.6,397.6c-0.9,1-1.6,1.7-2.3,2.3c-0.7,0.6-1.3,1.1-1.9,1.4
				s-1.1,0.5-1.6,0.5c-1,0-1.8-0.3-2.4-1s-1-1.5-1-2.5c0-0.6,0.2-1.4,0.5-2.2c0.3-0.8,0.7-1.7,1.3-2.5c0.9-1.3,2.1-2.4,3.4-3.4
				c1.4-0.9,2.8-1.4,4.1-1.4c1.1,0,2,0.2,2.8,0.7c0.7,0.5,1.1,1,1.1,1.7c0,0.5-0.2,1.1-0.5,1.6c0.5,0,0.8,0,0.9,0.2
				c0.1,0.1,0.2,0.3,0.2,0.7c0,0,0,0.1-0.1,0.5c-0.1,0.9-0.1,1.7-0.1,2.4c0,0.4,0,0.7,0,0.9c0,0.2,0,0.4,0.1,0.7
				c0,0.3,0.1,0.5,0.1,0.6c0.1,0.4,0.2,0.8,0.3,1.2c-0.5,0.5-1,0.9-1.5,1.1s-1,0.4-1.5,0.4c-1.3,0-2-1.1-2-3.4
				C1160.6,398,1160.6,397.8,1160.6,397.6z M1161.4,394.6l-0.2,0.1c-0.6,0.2-1.1,0.3-1.4,0.3s-0.5-0.1-0.5-0.3
				c0-0.1,0.1-0.2,0.2-0.5c0.5-0.7,0.7-1.4,0.7-2.1c0-0.4-0.1-0.7-0.2-1s-0.3-0.5-0.4-0.5s-0.4,0.1-0.6,0.4
				c-0.8,0.9-1.5,1.8-1.9,2.7c-0.5,0.9-0.7,1.7-0.7,2.5c0,0.5,0.1,0.9,0.3,1.2s0.4,0.5,0.7,0.5c0.3,0,0.7-0.3,1.4-0.8
				s1.5-1.3,2.3-2.1L1161.4,394.6L1161.4,394.6z"/>
			<path class="st49" d="M1180.7,396.7l-3.6,3.7c-0.5,0.5-0.8,0.8-1.1,0.9c-0.3,0.2-0.6,0.3-0.9,0.3c-0.5,0-1-0.2-1.3-0.6
				c-0.4-0.4-0.5-0.9-0.5-1.5c0-0.4,0.1-0.7,0.2-1.2c0.1-0.4,0.3-1.1,0.6-1.9c0.1-0.2,0.1-0.3,0.2-0.5c0.1-0.1,0.1-0.2,0.1-0.3
				l-0.1-0.1c-0.8,0.9-1.7,1.8-2.5,2.8c-0.7,0.8-1.2,1.4-1.6,1.8s-0.8,0.7-1.1,0.9c-0.3,0.2-0.6,0.3-0.9,0.3c-0.6,0-1-0.2-1.3-0.7
				c-0.3-0.4-0.5-1-0.5-1.8c0-1,0.4-2.5,1.3-4.7c0.7-1.9,1.3-3.2,1.7-3.9c0.6-0.9,1.3-1.4,2.1-1.4c0.5,0,0.9,0.1,1.2,0.3
				c0.3,0.2,0.5,0.5,0.5,0.9c0,0.7-0.2,1.6-0.7,3c-0.2,0.5-0.4,1.1-0.6,1.7l0.1,0.1c0.3-0.4,0.8-1,1.6-1.8c1.2-1.5,2.2-2.5,2.8-3.1
				c0.8-0.7,1.6-1.1,2.2-1.1c0.3,0,0.6,0.1,0.8,0.3c0.3,0.2,0.5,0.5,0.6,0.8c0.2,0.3,0.2,0.7,0.2,1.1s-0.3,1.3-0.8,2.9
				c-0.1,0.3-0.2,0.6-0.3,0.8c-0.1,0.2-0.1,0.3-0.2,0.5l0.1,0.1c0.1-0.1,0.2-0.2,0.3-0.3c0.1-0.1,0.2-0.2,0.3-0.3
				c0.1-0.1,0.2-0.2,0.3-0.3c0.2-0.2,0.8-0.8,1.8-1.8c0.6-0.7,1.1-1.2,1.5-1.4s0.7-0.4,1-0.4c0.5,0,1,0.2,1.2,0.6
				c0.3,0.4,0.4,0.9,0.4,1.6c0,0.4-0.1,1.1-0.2,2.1c-0.1,1.1-0.2,1.9-0.3,2.5c0,0.6-0.1,1-0.1,1.3c0,0.2,0,0.4,0,0.7
				c0,0.3,0.1,0.6,0.1,0.9c0.1,0.3,0.1,0.7,0.2,1.1c0.1,0.5,0.2,0.9,0.2,1.1c-0.1,0.3-0.3,0.6-0.7,0.8c-0.4,0.2-0.8,0.3-1.3,0.3
				c-0.7,0-1.4-0.3-2-1c-0.3-0.3-0.5-0.6-0.6-0.9c-0.2-0.3-0.3-0.7-0.3-1.1s-0.1-1-0.1-1.6c0-0.4,0.1-1.4,0.2-2.8l-0.1-0.1
				L1180.7,396.7z"/>
			<path class="st49" d="M1193.3,392.8l0.4-0.8c0.4-0.7,0.7-1.2,1.1-1.7c0.3-0.5,0.6-0.8,0.9-1s0.6-0.4,0.9-0.5s0.6-0.2,0.9-0.2
				c0.7,0,1.3,0.2,1.8,0.6s0.9,1,1.2,1.7s0.4,1.6,0.4,2.5c0,1.4-0.3,2.7-0.9,3.9c-0.6,1.3-1.4,2.3-2.4,3.1c-1,0.8-2,1.2-3.1,1.2
				c-0.6,0-1.1-0.1-1.5-0.4s-0.8-0.7-1.1-1.3l-0.1,0.2l-0.1,0.3c-0.6,1.8-1,3.2-1.4,4c-0.3,0.9-0.6,1.4-0.9,1.6
				c-0.2,0.2-0.4,0.3-0.7,0.3c-0.5,0-0.9-0.2-1.2-0.7c-0.3-0.5-0.4-1.2-0.4-2.1c0-1,0.1-2.1,0.3-3.5c0.2-1.3,0.5-2.7,0.9-4.1
				s0.8-2.7,1.2-3.8c0.3-0.7,0.6-1.3,1-1.8s0.7-0.9,1-1.1c0.2-0.1,0.5-0.2,0.8-0.2c0.4,0,0.7,0.1,0.9,0.3c0.2,0.2,0.3,0.5,0.3,0.9
				c0,0.3,0,0.7-0.1,1.1C1193.3,391.8,1193.3,392.3,1193.3,392.8L1193.3,392.8z M1192.3,398.4c0.2,0.7,0.7,1.1,1.4,1.1
				c0.5,0,0.9-0.2,1.3-0.6s0.7-1,1-1.8c0.2-0.7,0.4-1.5,0.4-2.3c0-0.6-0.1-1.2-0.2-1.7s-0.2-0.7-0.3-0.7c-0.1,0-0.3,0.2-0.7,0.7
				c-0.4,0.5-0.7,1-1.1,1.6c-0.7,1.2-1.3,2.2-1.7,3.1C1192.4,398.1,1192.3,398.3,1192.3,398.4z"/>
			<path class="st49" d="M1210.7,397.6L1210.7,397.6L1210.7,397.6c-0.9,1-1.6,1.7-2.3,2.3c-0.7,0.6-1.3,1.1-1.9,1.4
				s-1.1,0.5-1.6,0.5c-1,0-1.8-0.3-2.4-1s-1-1.5-1-2.5c0-0.6,0.2-1.4,0.5-2.2s0.7-1.7,1.3-2.5c0.9-1.3,2.1-2.4,3.4-3.4
				c1.4-0.9,2.8-1.4,4.1-1.4c1.1,0,2,0.2,2.8,0.7c0.7,0.5,1.1,1,1.1,1.7c0,0.5-0.2,1.1-0.5,1.6c0.5,0,0.8,0,0.9,0.2
				c0.1,0.1,0.2,0.3,0.2,0.7c0,0,0,0.1-0.1,0.5c-0.1,0.9-0.1,1.7-0.1,2.4c0,0.4,0,0.7,0,0.9c0,0.2,0,0.4,0.1,0.7
				c0,0.3,0.1,0.5,0.1,0.6c0.1,0.4,0.2,0.8,0.3,1.2c-0.5,0.5-1,0.9-1.5,1.1s-1,0.4-1.5,0.4c-1.3,0-2-1.1-2-3.4
				C1210.7,398,1210.7,397.8,1210.7,397.6z M1211.5,394.6l-0.2,0.1c-0.6,0.2-1.1,0.3-1.4,0.3s-0.5-0.1-0.5-0.3
				c0-0.1,0.1-0.2,0.2-0.5c0.5-0.7,0.7-1.4,0.7-2.1c0-0.4-0.1-0.7-0.2-1s-0.3-0.5-0.4-0.5s-0.4,0.1-0.6,0.4
				c-0.8,0.9-1.5,1.8-1.9,2.7c-0.5,0.9-0.7,1.7-0.7,2.5c0,0.5,0.1,0.9,0.3,1.2c0.2,0.3,0.4,0.5,0.7,0.5c0.3,0,0.7-0.3,1.4-0.8
				c0.7-0.5,1.5-1.3,2.3-2.1L1211.5,394.6L1211.5,394.6z"/>
			<path class="st49" d="M1222.7,394.5l0.8-0.9c0.8-0.9,1.4-1.5,1.9-2s0.9-0.7,1.3-0.9c0.4-0.2,0.7-0.3,1.1-0.3
				c0.6,0,1.1,0.2,1.3,0.5c0.3,0.3,0.4,0.9,0.4,1.7c0,0.3,0,0.8-0.1,1.5c-0.1,0.9-0.2,1.7-0.2,2.5c0,0.9,0,1.6,0.1,2.1
				c0.1,0.3,0.2,0.7,0.3,1c0.1,0.3,0.1,0.5,0.1,0.6s-0.1,0.2-0.2,0.3c-0.3,0.2-0.6,0.4-1.1,0.6c-0.4,0.2-0.8,0.3-1.1,0.3
				c-0.5,0-0.9-0.2-1.4-0.5c-0.4-0.3-0.7-0.8-0.9-1.4c-0.2-0.6-0.3-1.3-0.3-2c0-0.5,0.1-1.1,0.2-1.8l-0.1-0.1
				c-0.4,0.4-0.7,0.7-0.9,1s-0.4,0.5-0.6,0.7c-1,1.1-1.8,2.1-2.5,3c-0.3,0.3-0.5,0.7-0.7,0.9c-0.3,0.3-0.7,0.5-1.1,0.5
				c-0.6,0-1-0.2-1.4-0.6c-0.3-0.4-0.5-1-0.5-1.6c0-0.4,0-0.9,0.1-1.5s0.2-1.2,0.4-1.9c0.2-0.7,0.4-1.4,0.6-2.1s0.5-1.4,0.7-2
				c0.4-1.1,0.9-1.9,1.5-2.5c0.4-0.4,0.9-0.6,1.4-0.6c0.9,0,1.4,0.6,1.4,1.8C1223.2,391.6,1223,392.9,1222.7,394.5L1222.7,394.5z"/>
			<path class="st49" d="M1239.1,392.4l0.2-0.6c0.2-0.9,0.6-1.5,1-2c0.3-0.3,0.6-0.5,1-0.7s0.7-0.3,1-0.3c0.6,0,0.9,0.2,0.9,0.7
				c0,0.2-0.1,0.6-0.2,1.1c-0.2,0.5-0.4,1.1-0.6,1.7c-0.3,0.6-0.6,1.4-0.9,2.1c-0.3,0.8-0.7,1.6-1.1,2.4c-0.8,1.6-1.5,2.9-2.3,3.9
				c-0.6,0.8-1.1,1.4-1.7,2s-1.2,1.1-1.8,1.6c-0.6,0.5-1.2,0.8-1.8,1.1c-0.6,0.2-1.1,0.4-1.6,0.4c-0.4,0-0.6-0.2-0.6-0.5
				s0.1-0.6,0.2-1s0.3-0.7,0.5-1.1c0.2-0.3,0.5-0.6,0.9-0.8c0.5-0.3,1.1-0.7,2-1.1c-0.5-0.9-0.9-1.6-1.2-2.1
				c-0.3-0.5-0.6-1.2-0.9-1.9c-0.7-1.7-1.1-3.2-1.1-4.6c0-1.1,0.1-1.9,0.4-2.6c0.2-0.6,0.7-1,1.3-1.2c0.5-0.2,1-0.3,1.4-0.3
				c0.6,0,0.9,0.2,1.1,0.6s0.4,1.4,0.5,3c0.2,1.7,0.4,3.4,0.8,5c0.1,0.3,0.1,0.6,0.2,1h0.1c0.2-0.5,0.5-1.1,0.8-1.9
				c0.1-0.2,0.4-1,0.9-2.3C1238.7,393.6,1239,392.9,1239.1,392.4z"/>
			<path class="st49" d="M1252.3,397.6L1252.3,397.6L1252.3,397.6c-0.9,1-1.6,1.7-2.3,2.3c-0.7,0.6-1.3,1.1-1.9,1.4
				s-1.1,0.5-1.6,0.5c-1,0-1.8-0.3-2.4-1s-1-1.5-1-2.5c0-0.6,0.2-1.4,0.5-2.2c0.3-0.8,0.7-1.7,1.3-2.5c0.9-1.3,2.1-2.4,3.4-3.4
				c1.4-0.9,2.8-1.4,4.1-1.4c1.1,0,2,0.2,2.8,0.7c0.7,0.5,1.1,1,1.1,1.7c0,0.5-0.2,1.1-0.5,1.6c0.5,0,0.8,0,0.9,0.2
				c0.1,0.1,0.2,0.3,0.2,0.7c0,0,0,0.1-0.1,0.5c-0.1,0.9-0.1,1.7-0.1,2.4c0,0.4,0,0.7,0,0.9c0,0.2,0,0.4,0.1,0.7
				c0,0.3,0.1,0.5,0.1,0.6c0.1,0.4,0.2,0.8,0.3,1.2c-0.5,0.5-1,0.9-1.5,1.1s-1,0.4-1.5,0.4c-1.3,0-2-1.1-2-3.4
				C1252.3,398,1252.3,397.8,1252.3,397.6z M1253.1,394.6l-0.2,0.1c-0.6,0.2-1.1,0.3-1.4,0.3s-0.5-0.1-0.5-0.3
				c0-0.1,0.1-0.2,0.2-0.5c0.5-0.7,0.7-1.4,0.7-2.1c0-0.4-0.1-0.7-0.2-1s-0.3-0.5-0.4-0.5s-0.4,0.1-0.6,0.4
				c-0.8,0.9-1.5,1.8-1.9,2.7c-0.5,0.9-0.7,1.7-0.7,2.5c0,0.5,0.1,0.9,0.3,1.2c0.2,0.3,0.4,0.5,0.7,0.5c0.3,0,0.7-0.3,1.4-0.8
				s1.5-1.3,2.3-2.1L1253.1,394.6L1253.1,394.6z"/>
		</g>
	</g>
</g>
<g>
	<path class="st50" d="M910.6,251.8L885,269.6l-21.7,43.8l-5.5,140.1c0,0,3.5,6.8,34.8,10c28.2,2.9,46.3-2.9,46.3-2.9L962,290.2
		v-10.6L910.6,251.8z"/>
	<path class="st51" d="M1002.7,413.8c0,0,6.6,0.8,15-7.3s15.2-23.3,16.2-29.9c0.9-6.5-4-17.4,0-19.6c4-2.2,10.3-28,10.3-28
		s3.7,0.6,5.3-8.7s-4.4-16.5-2.2-24c2.2-7.5,7.8-25.8,0.6-34.5c-7.2-8.7-29.9-15.6-35.2-24.3s-26.1-26.1-26.1-26.1L963.5,240
		l-13.1,45c0,0-9.9,41.8-10.8,55s-9,101.3-9,101.3v25.9l93.9-8.1l-14.3-34.8L1002.7,413.8z"/>
	<path class="st51" d="M918.4,227.6c0,0-10.6-32.6-8.5-48.4s4.4-36.6,4.5-47.8c0-11.2,0.6-27,18.2-39.3s28.9-11.5,37.1-9.3
		s26.4,4.5,35.5,26.4s13.4,68.3,16.6,85.3c3.2,17,7,36,13.1,48.8s9.1,22.7,9.1,22.7l-44.1-4.8L918.4,227.6z"/>
	<path class="st52" d="M937.3,104c0,0-5.1,3.9-8.7,5.2s-7.4,5.1-8.3,8.9c-0.9,3.8-3.5,15.3-3.5,18.3s1.9,6.1,0,11.2
		s-3.9,12.8-1.2,21.1c2.8,8.3,7.8,16.4,10.2,20.3s3.4,7.1,5.4,9.4c2,2.3,7,1.5,7,1.5s3.6,3.8-3.9,17.7c-3.7,6.8-10,18-11.5,26.9
		c-1.5,8.9-8.5,15.7-8.5,15.7s2.9,12.5,11.9,18.5c9,6,24.1,6.4,24.1,6.4l13.1-45l18-19.8c0,0-3.5-21.4,0-30.7s7.8-32.6,6.7-36.5
		c-1.2-3.9-3.3-5.5-3.3-5.5s-14.1-12.3-15.5-20.6c0,0-11.2-13.4-14.4-14.5S938.2,106,937.3,104z"/>
	<path class="st51" d="M861.9,467.2c0,0,5.5-113,8.7-124.8c3.1-11.8-5.3-19.9,1.2-35.5c6.5-15.6,30.5-34.9,36.7-40.1
		c6.2-5.2,12.7-13.6,14.1-17.8c1.4-4.2,1.6-9.3,3.7-13.4s12-23,12.5-30c0,0-4.2,1-6.5,4.8s-6.4,6.3-6.4,6.3s-26.3,4.8-31.1,1.1
		c-4.8-3.7-14.2,3.7-14.2,3.7s-6,11.5-12.8,12c-6.8,0.5-12.8,4.2-14.6,13.6c-1.8,9.4-4.4,28.8-7.6,37.9c-3.2,9.1-8.5,30.8-11.1,37.8
		c-2.6,7,11.1,53.1,11.1,53.1s2.8,34-7,65.1C833.6,457.1,861.9,467.2,861.9,467.2z"/>
	<path class="st53" d="M845.8,377.5c0,0-9.6,6.1-14.3-3.3c-4.8-9.4-20.9-34.6-24.7-63.5s-8.3-38.2-13.1-42s-10.6-7.9-12.5-11.9
		c-1.9-4-15.7-10.8-15.8-12.5s-1.4-7.1,1.8-6.8c3.1,0.3-3.4-6.3-1.5-8.7c1.9-2.5,9.2-1.4,9.2-1.4l-0.5-2.4c0,0-9-1-7.5-6.3
		s9.5-3.8,9.5-3.8l-0.6-4.4c0,0-10.5-6.4-9.2-9.9c1.2-3.5,5.3-2.6,7-1.2s32.6,18.7,32.6,18.7s0-11.3,2.5-13.1
		c2.5-1.8,4.5-1.1,4.5-1.1s0.1,10.4,1.4,12c1.2,1.6,1.9,7.9,1.8,9.5c-0.1,1.6,4,14,2.9,35.6c0,0,7.4,12.3,9.1,25.2
		s11,29.2,17.5,36.7s3.2,33.7,3.2,33.7L845.8,377.5z"/>
	<path class="st52" d="M981.8,368.9c0,0,11.2,7.4,14.1,13.1c2.9,5.7,11.2,17.7,11.9,18.6c0.7,0.9-2.6,9.6-3.6,12.1
		c-1,2.4-8.4,1.9-18.6-1.2c-10.2-3.1-56.7-20.6-79.2-34.6c-18.4-11.4-23.3-14.3-28.6-16.4c-5.3-2.1-21-8.6-25.3-10s-13.6-11-20-12.9
		c-6.4-1.9-19.1-6-21.5-5s-5-4.8-4.8-6.5c0.2-1.7,12.2-4,16.9-2.9c4.7,1,22.2,6.5,24.6,8.8c2.4,2.2,9.5,2.8,14,3.8
		c4.5,1.1,22.9,1.3,25.8,4.4c2.9,3.1,7.2,7.5,10.8,9.4s59.2,15.7,66.7,16.2C972.2,366.3,981.8,368.9,981.8,368.9z"/>
	<path class="st51" d="M780.7,184c0,0-5.5-1.4-5.9,5.2c-0.5,6.6-0.2,10.7-0.2,10.7s1.1,7.3-1.1,9v6.2c0,0,1.5,2.3,0.7,5.1
		c-0.8,2.9-2,4.3-2,4.3v2.6c0,0,2.4,3.2,1.6,5.7c-0.8,2.5-3.5,3.3-3.5,3.3v2.3c0,0,2.1-0.1,1.4,2.5c-0.7,2.6-1.8,4.8-2.5,4.8
		c0,0-0.1,1.3,0,4.1s0.1,5.9,6.3,6c6.2,0.1,22.1,0.7,24.6,1.6c2.5,0.9,4.3-2.1,4.4-5c0.1-3-1.8-13.9,0-17c1.8-3.1,2-13.2,1.6-17.5
		c-0.4-4.2,0.1-12.1,3.5-13.7c0,0,0-9.8,0-13.8c0-4-1.2-4.7-6.2-5.4C798.3,184.4,780.7,184,780.7,184z"/>
	<path class="st49" d="M785.5,186.5c0,0-4.4-0.1-6.1,0c-1.7,0.1-2.8,0.9-2.9,3.8c-0.2,4.5-3.8,60.2-3.8,61.2c0,0.9,6.1,1.1,13.2,1.9
		c7.1,0.8,16.4,1.7,16.7,0.5c0.3-1.1,1.3-17.2,1.4-21.2c0.1-3.9,1.9-36.1,2.4-39.5c0.4-3.4,1.6-5.3,0-5.2c-1.6,0.2-5.7-1-6.6-0.6
		s-1,1.7-2.2,2.3c-1.1,0.6-7.4,0-8.9,0S785.7,187.6,785.5,186.5z"/>
	<path class="st49" d="M927.9,175.3c0,0,6.8-2.1,9.6-1.5s16.3,0.7,16.3,0.7s-9.8,6.2-16.5,6C930.4,180.2,927.9,175.3,927.9,175.3z"
		/>
</g>
</svg>
